<svg width="94" height="117" fill="none" xmlns="http://www.w3.org/2000/svg"><path d="M2 115c.772-.654 1.684-1.127 2.512-1.701 6.221-4.313 11.82-9.578 17.11-14.967C35.723 83.97 48.559 68.3 60.088 51.8 71.02 36.154 79.833 19.586 89.08 2.954M89.52 2c0 1.454.068 2.91.154 4.355.145 2.415.349 4.821.608 7.209.432 3.983 1.061 7.861 1.648 11.781M89.176 2.036c-.257.058-.517.191-.752.299-1.539.706-3.038 1.498-4.56 2.24a150.048 150.048 0 01-8.896 4.013c-2.804 1.15-5.655 2.157-8.503 3.19" stroke="#FF8A00" stroke-width="3" stroke-linecap="round"/></svg>