<svg width="223" height="113" fill="none" xmlns="http://www.w3.org/2000/svg"><path d="M221.787 104.777a1.5 1.5 0 00.49-2.064l-7.086-11.491a1.5 1.5 0 10-2.553 1.574l6.298 10.215-10.214 6.298a1.5 1.5 0 101.574 2.553l11.491-7.085zM1.104 4.497c29.563-2.047 50.028 1.32 66.076 7.902C83.237 18.985 95 28.84 107.136 40.016c24.337 22.416 49.858 49.846 113.518 64.944l.692-2.919c-62.84-14.903-87.866-41.839-112.178-64.231C96.98 26.584 84.893 16.422 68.318 9.624 51.736 2.822 30.787-.566.897 1.504l.208 2.993z" fill="#FF8A00"/></svg>