<svg width="194" height="75" fill="none" xmlns="http://www.w3.org/2000/svg"><path d="M5.908 69.813c0-10.245.076-20.485-.445-30.72C4.87 27.475 3.358 16.015 2.386 4.45c-.146-1.735-.998-3.265.424-1.962 8.11 7.434 17.125 13.864 25.257 21.29 2.965 2.707 5.717 5.293 8.516 8.092.93.929 1.446 2.44 2.631 3.032" stroke="#FF8A00" stroke-width="3" stroke-linecap="round"/><path d="M15.137 56.57c0-4.712-.802-9.328-.802-14.022 0-.446-.304-4.625.089-4.748 1.454-.454 5.263 2.529 6.465 3.3a39.677 39.677 0 012.876 2.05c.825.642 1.74 1.205 2.608 1.784m161.111 27.879c0-10.245-.087-20.485.515-30.72.683-11.618 2.432-23.078 3.555-34.643.168-1.735 1.153-3.265-.49-1.962-9.37 7.434-19.787 13.864-29.185 21.29-3.425 2.707-6.605 5.293-9.839 8.092-1.074.929-1.671 2.44-3.04 3.032" stroke="#FF8A00" stroke-width="3" stroke-linecap="round"/><path d="M176.82 59.57c0-4.712.927-9.328.927-14.022 0-.446.352-4.625-.103-4.748-1.68-.454-6.081 2.529-7.47 3.3a46.894 46.894 0 00-3.323 2.05c-.953.642-2.01 1.205-3.013 1.784" stroke="#FF8A00" stroke-width="3" stroke-linecap="round"/></svg>