<svg width="205" height="200" fill="none" xmlns="http://www.w3.org/2000/svg"><path d="M2.42 16.505c-.144-.054-.254-.175-.33-.361l-.245-.54c-.044-.086-.044-.194-.002-.325l.046-.175a.395.395 0 00.024-.23c-.02-.114.016-.25.108-.41.091-.159.19-.312.295-.459l.316-.44c.082-.12.17-.235.265-.343l.268-.304.145-.124c.086-.044.16-.1.219-.167l.16-.183 3.245-3.69c.193-.166.373-.343.54-.532l.517-.588c.18-.178.347-.354.501-.53a4.79 4.79 0 00.441-.583c.046-.08.105-.16.176-.24l.214-.244.32-.365c.108-.122.201-.255.281-.4l.054-.062a4.79 4.79 0 00.44-.583c.154-.2.3-.395.441-.583.082-.12.158-.233.227-.34a2.9 2.9 0 00.19-.337.888.888 0 01.121-.18l.143-.162a1.09 1.09 0 01.272-.228c.11-.071.215-.135.313-.193a.767.767 0 01.343-.022c.04.01.071.015.097.013a.451.451 0 01.449.144c.015.037.062.066.14.086.114.006.181.052.2.14.017.063.084.123.203.179.04.035.062.079.065.13a.491.491 0 00.055.264.341.341 0 01.035.246l.015.229-.026.193a.182.182 0 01-.046.175.44.44 0 01-.143.162l-.124.142a5.148 5.148 0 00-.319.403c-.08.146-.166.285-.26.419a5.35 5.35 0 01-.313.479l-.334.461-.179.203a1.371 1.371 0 01-.209.32c-.083.094-.16.195-.229.301l-.018.02-.387.523-.388.522c-.045.08-.104.16-.175.241l-.179.203-4.742 5.394a4.272 4.272 0 00-.3.382c-.08.146-.161.279-.243.399-.06.067-.049.137.033.208a.989.989 0 00.344.303c.173.104.327.215.462.334a1439.383 1439.383 0 00.872.766c.16.118.314.229.461.334l.223.196c.096.109.18.206.248.29l.284.25c.149.13.292.268.428.413.163.142.312.286.449.43.096.109.198.21.307.306l.365.32.101.09c.282.224.466.505.552.844a.495.495 0 01.024.381c-.02.078-.048.15-.082.216a.601.601 0 01-.082.216.887.887 0 01-.122.18c-.022.052-.05.111-.084.177-.067.158-.199.28-.397.37l-.148.086a.685.685 0 01-.168.068.482.482 0 01-.19.013l-.117-.031a1.03 1.03 0 01-.525-.139c-.146-.08-.305-.171-.477-.275l-.185-.199a3.234 3.234 0 00-.501-.656 1.004 1.004 0 00-.165-.18 1.375 1.375 0 00-.185-.2l-.284-.25-.268-.307-.185-.199a4.401 4.401 0 01-.383-.3 2.2 2.2 0 00-.365-.321l-.162-.143a.885.885 0 00-.145-.163l-.324-.285a1.672 1.672 0 00-.34-.227 3.585 3.585 0 01-.238-.138l-.203-.178a12.404 12.404 0 00-.662-.474 5.459 5.459 0 00-.66-.436.821.821 0 01-.2-.14zm10.7 9.552a.562.562 0 01-.145-.163.72.72 0 00-.167-.219 1.01 1.01 0 01-.2-.14l-.041-.036c-.026.002-.045-.003-.058-.015a2.67 2.67 0 01-.302-.23 1.018 1.018 0 01-.208-.254c-.001-.025-.009-.044-.023-.056a.363.363 0 01-.171-.295 3.31 3.31 0 00-.043-.36.413.413 0 01.095-.313l.082-.215a.625.625 0 01.19-.3.115.115 0 00.072-.08l.072-.082a.24.24 0 01.05-.099.302.302 0 00.07-.12c.08-.145.166-.284.26-.418.118-.135.238-.257.359-.367.084-.07.25-.163.498-.28.26-.132.414-.212.463-.24a.462.462 0 00.203-.11c.118-.16.242-.315.372-.464.156-.15.3-.3.43-.448a.485.485 0 01.258-.17.456.456 0 00.287-.286l.136-.277c.05-.22.169-.342.359-.367l.017-.02c.026-.002.044-.01.056-.023.051-.003.088-.031.11-.084a.737.737 0 01.087-.139.891.891 0 01.162-.144.394.394 0 00.181-.165l-.005-.076a.56.56 0 01.123-.18c.084-.07.133-.11.145-.124l.499-.568a1.25 1.25 0 00.18-.165 1.41 1.41 0 01.2-.185.98.98 0 00.213-.243l.25-.284a9.36 9.36 0 01.155-.259c.072-.08.143-.162.214-.243a.301.301 0 01.07-.12l.088-.1.138-.239.178-.203c.024-.027.074-.138.15-.335.09-.21.188-.362.297-.459a.301.301 0 00.11-.083.183.183 0 00.048-.137c-.015-.037-.005-.076.03-.117l.054-.06a.914.914 0 00.367-.54.441.441 0 01.153-.298.35.35 0 00.072-.368 1.528 1.528 0 01.032-.404 1.06 1.06 0 01.148-.373c.046-.08.098-.153.158-.22l.16-.183c.048-.054.084-.082.11-.083a.336.336 0 00.241-.111.816.816 0 01.181-.165c.025-.002.045.003.058.015.014.012.033.017.059.016.066.034.134.01.206-.071a.435.435 0 01.084-.178c.034-.066.096-.095.186-.088.074-.03.12-.014.137.049.058.123.179.205.36.244.078.02.123.037.137.049l.06.053c.026-.001.072.028.14.087.07.085.167.123.294.115a.625.625 0 01.47.161l1.257 1.106c.299.287.61.56.933.82.322.26.633.52.93.782l.162.142.198.102a.82.82 0 01.337.19l.467.41.284.249.32.209a.859.859 0 01.159.104l.162.143.162.143a.89.89 0 00.18.122c.12.082.241.176.363.283.133.093.254.188.363.283l.141.124.198.102c.132.069.245.144.34.227.12.082.233.158.34.227.12.082.233.157.34.227.12.082.233.157.34.227.121.107.197.198.228.272.033.126.066.238.098.338.045.112.072.232.08.359a.533.533 0 01-.023.23l-.102.199a5.184 5.184 0 01-.12.218l-.125.142a9.435 9.435 0 00-.237.187c-.06.068-.131.136-.216.205a.721.721 0 01-.226.053l-.686.044a2.863 2.863 0 01-.477-.275 2.445 2.445 0 01-.385-.339l-.142-.125a1.373 1.373 0 01-.406-.356.979.979 0 00-.243-.214l-.243-.214a.884.884 0 00-.18-.123.796.796 0 01-.125-.145.683.683 0 00-.202-.178 1.255 1.255 0 00-.2-.14 1.243 1.243 0 00-.201-.14l-.183-.16a5.03 5.03 0 01-.603-.46 5.404 5.404 0 00-.603-.458 1.29 1.29 0 00-.363-.283c-.12-.081-.247-.169-.38-.262a3.717 3.717 0 01-.363-.283 1.887 1.887 0 00-.38-.263 1.872 1.872 0 00-.46-.296 4.395 4.395 0 01-.438-.277l-.16-.105a1.103 1.103 0 00-.299-.191 3.189 3.189 0 00-.317-.171l-.198-.102a1.249 1.249 0 00-.2-.14.435.435 0 00-.178-.085c-.052-.022-.108 0-.168.069l-.1.236c-.01.038-.075.1-.198.184a2.95 2.95 0 01-.254.208.514.514 0 00-.087.14l-.066.157a1.375 1.375 0 01-.26.418 1.89 1.89 0 00-.263.38.94.94 0 01-.14.201c-.048.054-.094.12-.14.2l-.09.102a.301.301 0 01-.068.119c-.036.04-.067.062-.092.063a.396.396 0 00-.221.13l-.178.202a1.2 1.2 0 01-.256.495l-.356.405c-.036.04-.014.084.066.13l.02.018a.63.63 0 01.188-.05c.04.035.1.063.178.084.064.008.13.042.197.102.097.108.198.198.305.267l.355.169c.778.396 1.557.71 2.337.94.208.063.41.146.609.248.21.088.401.197.575.326l.061.054.4.28c.135.094.262.194.384.3.174.13.347.246.52.35.186.116.366.238.54.367.118.056.224.113.317.171.105.044.222.088.352.13.236.087.428.196.576.327.097.109.174.225.233.349.071.11.13.234.177.37.084.314.007.606-.23.877a1.78 1.78 0 01-.326.288c-.11.097-.21.199-.306.307-.024.027-.061.042-.112.045l-.15.048-.183.127a.242.242 0 01-.208.032l-.46-.009a.937.937 0 01-.409-.107l-.198-.102a.6.6 0 01-.16-.105 7.617 7.617 0 00-.704-.547c-.24-.164-.487-.333-.74-.508a9.346 9.346 0 00-.581-.402 4.1 4.1 0 01-.543-.406 2.33 2.33 0 00-.637-.38c-.158-.091-.324-.19-.497-.293a6.724 6.724 0 01-.5-.331 4.95 4.95 0 00-.397-.243l-.36-.244-.399-.243a.374.374 0 01-.14-.086 2.836 2.836 0 01-.337-.189 2.842 2.842 0 00-.337-.189 2.843 2.843 0 00-.337-.189 8.445 8.445 0 01-.335-.15.412.412 0 00-.234-.062.408.408 0 00-.208.033.25.25 0 00-.107.121.304.304 0 01-.163.145 5.402 5.402 0 01-.336.423 2.712 2.712 0 01-.357.406 1.169 1.169 0 01-.265.342c-.095.108-.197.21-.305.306-.17.139-.282.28-.337.424a1.277 1.277 0 01-.521.512c-.099.057-.146.111-.143.162-.009.064-.05.112-.125.142l-.107.121c-.108.097-.109.192 0 .288l.04.035c.095.083.16.2.195.351a.308.308 0 00.19.275l.62.438c.094.058.18.123.262.194.093.058.18.122.261.194.039.01.074.052.104.127.032.1.087.16.165.18a.34.34 0 01.154.029c.066.034.125.05.176.046a.411.411 0 01.375.186c.084.122.178.193.281.212.158.066.285.154.38.262.056.073.13.126.221.159a.722.722 0 01.239.137c.027.024.041.049.043.074.013.012.033.017.058.015a.24.24 0 00.1.051c.038.01.064.022.078.034.13.042.23.106.299.19l.101.09a.336.336 0 01.142.125.601.601 0 01.089.185.602.602 0 01.109.204c.03.074.066.142.108.203.027.024.042.049.043.074.02.114.06.232.119.356.072.136.091.236.058.302a1.02 1.02 0 01-.174.28c-.06.067-.118.147-.176.24a.51.51 0 01-.127.104.508.508 0 01-.127.104c-.075.03-.162.061-.262.093a.72.72 0 01-.282.076l-.153.01a.423.423 0 01-.132.027c-.101.007-.204 0-.307-.018a.567.567 0 01-.277-.136.378.378 0 00-.14-.086.48.48 0 01-.197-.103l-.182-.16-.32-.209a2.488 2.488 0 01-.246-.252.335.335 0 00-.142-.125 1.1 1.1 0 01-.423-.336 5.402 5.402 0 00-.423-.336l-.365-.321-.264-.232a.3.3 0 00-.12-.069.601.601 0 01-.238-.138 1.369 1.369 0 01-.184-.198l-.203-.179-.061-.053a.115.115 0 01-.081-.071.511.511 0 00-.104-.128 1.06 1.06 0 01-.137-.048l-.081-.072c-.026.002-.052-.009-.079-.033a2.445 2.445 0 00-.385-.338 24.54 24.54 0 01-.457-.258zm13.652 11.716a.377.377 0 00-.104-.127c-.027-.024-.037-.068-.028-.132a.884.884 0 00.008-.173c.009-.064.023-.135.044-.213.007-.09-.027-.12-.102-.09l-.04-.035c.012-.013.01-.026-.003-.038l.018-.02c.126-.225.22-.454.281-.688l.164-.431c.08-.146.166-.285.26-.419l.663-.999.58-.783.036-.04c.116-.187.245-.36.388-.523l.463-.527c.07-.107.14-.2.212-.282a2.68 2.68 0 00.23-.301c.08-.12.162-.24.244-.36l.267-.305 1.429-1.584 1.908-2.17c.044-.104.04-.18-.015-.228a.445.445 0 00-.12-.069 27.542 27.542 0 01-.08-.071l-1.127-.56-.472-.198a4.896 4.896 0 00-.454-.22l-.32-.209-.263-.232a.547.547 0 01-.152-.277 1.02 1.02 0 01-.1-.376 4.429 4.429 0 01-.007-.401l.013-.097c.056-.118.106-.23.15-.335a1.9 1.9 0 01.634-.557c.15-.06.307-.09.473-.088a.484.484 0 00.19-.012l.23-.015c.077.02.123.037.136.049a.792.792 0 00.259.155.849.849 0 01.274.098l.239.137.238.138c.237.112.468.232.692.357.237.113.462.239.675.378l1.255.78c.04.01.066.021.08.033.026.024.052.035.078.034.105.044.204.095.297.153a.665.665 0 01.225.234c.015.037.03.062.043.074a.2.2 0 01.079.033l.76.525c.254.175.507.337.759.487l.598.382c.2.128.393.262.581.403.159.092.312.19.459.296l.441.316.36.245.38.262c.12.082.222.17.305.267l.324.286c.068.06.11.133.13.221.031.1.062.187.093.262.018.088.033.221.044.399.004.05-.023.135-.08.254-.021.052-.05.111-.083.177-.022.053-.05.112-.085.178a.671.671 0 01-.343.309l-.371.177a.68.68 0 01-.168.068.425.425 0 01-.132.027l-.077.005a2.845 2.845 0 01-.29-.038.61.61 0 01-.273-.098l-.925-.705a1.969 1.969 0 00-.262-.194 2.496 2.496 0 00-.281-.212l-.102-.089a12.87 12.87 0 00-.681-.492c-.227-.15-.454-.302-.68-.453l-.918-.592c-.04-.036-.074-.053-.1-.05-.053-.048-.13-.044-.228.014l-.053.06-.357.406a5.174 5.174 0 00-.318.403 1.783 1.783 0 01-.5.568l-.147.086-.071.081c-.13.174-.297.338-.504.492l-.107.121a.509.509 0 00-.087.14.996.996 0 01-.14.2l-.179.203-.927 1.054a1.69 1.69 0 01-.198.185c-.06.068-.12.135-.178.203l-.161.183a1.335 1.335 0 01-.158.22l-.25.284c-.07.106-.158.208-.267.304l-.553.629c-.012.013-.03.02-.056.022a.206.206 0 00-.033.079c-.093.134-.2.268-.318.403-.107.122-.2.255-.28.4l-.108.122a.25.25 0 01-.107.122 2.61 2.61 0 00-.298.421c-.08.145-.166.285-.26.419l-.311.517c-.09.184-.187.363-.29.535l-.19.337c-.035.041-.085.057-.15.048l-.02-.017-.038.002c-.091-.032-.154-.016-.188.05l-.09.102-.037.002c-.012.014-.025.014-.038.003a.256.256 0 00-.234-.062.94.94 0 01-.267.017 1.195 1.195 0 01-.233-.061 1.027 1.027 0 01-.523-.388zm14.794-1.121a.42.42 0 01-.271-.346l.005-.21a.183.183 0 01.049-.138 1.07 1.07 0 00.059-.272c.019-.103.032-.2.039-.289-.028-.432.08-.828.325-1.188.094-.134.2-.255.321-.365a9.32 9.32 0 01.29-.248c.11-.071.228-.123.354-.157.26-.106.495-.223.704-.351.22-.142.427-.295.621-.46.158-.126.322-.258.491-.396.17-.138.334-.27.491-.395a1.02 1.02 0 00.255-.208l.214-.243.196-.223a.823.823 0 00.196-.223c.083-.095.167-.177.252-.246.11-.07.208-.14.293-.21.207-.154.449-.252.727-.295.28-.018.552.053.817.215.4.28.615.637.643 1.068.017.063.027.133.032.209.005.076.01.14.012.19a.48.48 0 01-.051.386.963.963 0 01-.1.236.96.96 0 01-.14.2l-.143.163c-.047.054-.1.127-.158.22-.096.083-.2.172-.308.269a1.779 1.779 0 01-.325.288 5.808 5.808 0 01-.347.271l-.325.29c-.11.095-.218.192-.326.288a3.641 3.641 0 01-.346.27c-.123.085-.25.176-.385.274-.12.11-.247.214-.381.312a15.46 15.46 0 01-.273.228 3.176 3.176 0 01-.292.21 8.429 8.429 0 00-.313.192c-.085.07-.177.133-.275.19a2.18 2.18 0 01-.671.273l-.076.005a2.151 2.151 0 01-.417.065 1.949 1.949 0 01-.444-.067.513.513 0 00-.379.062 1.13 1.13 0 01-.165.106.568.568 0 01-.475.05zm-.71 15.303l-.291-.364a83.514 83.514 0 00-.476-.562 9.065 9.065 0 00-.495-.543 1.513 1.513 0 01-.425-.661 1.007 1.007 0 01.028-.767 1.53 1.53 0 00.117-.256l.138-.239c.142-.162.283-.254.422-.276.127-.008.24-.028.34-.06.114-.02.222-.033.323-.04a.411.411 0 01.135.011l.117.03a.846.846 0 01.274.098c.091.032.176.072.256.117.039.01.06.029.06.054l.062.053c.055.073.118.152.187.237.081.071.144.15.187.237l.745.87c.165.194.358.315.578.365.078.02.15.035.214.044.077.02.149.035.213.043.452.086.869.13 1.252.13.293-.006.579-.018.858-.036.28-.018.558-.061.834-.13.201-.038.37-.107.503-.204.146-.112.272-.241.377-.388l.082-.216a.41.41 0 00.061-.233 1.76 1.76 0 01.003-.25 4.85 4.85 0 01-.047-.436 1.396 1.396 0 00-.044-.4c-.06-.34-.127-.673-.199-1a29.33 29.33 0 00-.196-.963c.01-.04-.006-.102-.05-.188a8.15 8.15 0 01-.133-.585 8.954 8.954 0 00-.057-.59 5.52 5.52 0 00-.107-.777.831.831 0 01-.045-.399 1.282 1.282 0 00-.065-.416 2.432 2.432 0 01-.103-.415 4.85 4.85 0 00-.048-.437l-.05-.475a1.551 1.551 0 00-.021-.343 3.267 3.267 0 00-.005-.363.492.492 0 00.021-.27 1.76 1.76 0 01.004-.248.424.424 0 00.01-.135.684.684 0 01.046-.175c.062-.233.117-.473.165-.718a7.4 7.4 0 01.222-.703 9.57 9.57 0 00.146-.411c.068-.132.13-.258.186-.376a1.16 1.16 0 00.169-.355l.168-.355c.104-.173.195-.344.273-.515.104-.173.202-.338.294-.497l.102-.198a2.99 2.99 0 01.374-.426 3.39 3.39 0 01.567-.4c.197-.115.398-.166.603-.153l.69.032c.23.01.45.047.658.11.027.024.053.035.079.034.23.01.444.067.642.169.21.088.414.184.611.286.816.381 1.61.828 2.382 1.34l.203.177.385.34c.122.106.256.212.403.318.163.142.307.305.434.488.138.17.252.354.341.552.06.15.115.305.164.468.06.15.109.3.144.45.037.176.027.324-.03.442l-.063.195a1.04 1.04 0 01-.238.475 1.668 1.668 0 01-.359.367.789.789 0 01-.145.124l-.107.122a1.257 1.257 0 01-1.032.315c-.267.004-.51-.114-.73-.355-.03-.075-.07-.085-.117-.03-.048.053-.105.05-.173-.009l-.121-.107c-.081-.071-.127-.183-.137-.335-.008-.127.006-.211.042-.252.047-.054.11-.07.188-.05.032-.091.058-.176.079-.254a.628.628 0 00.026-.193.431.431 0 00-.058-.302l-.167-.219-.167-.219-.183-.16-.167-.22c-.028-.048-.095-.095-.2-.14l-.157-.066a.788.788 0 01-.124-.145l-.142-.125a.434.434 0 00-.178-.084l-.439-.278a2.526 2.526 0 00-.842-.31 105.58 105.58 0 01-.158-.066.25.25 0 01-.121-.107.292.292 0 00-.257-.117c-.037.015-.088.006-.154-.028a.183.183 0 00-.137-.049c-.102.007-.177.037-.224.091a.378.378 0 01-.087.14l-.662 1.61c-.109.288-.186.58-.23.877-.02.294-.032.595-.038.901-.008.472.027.91.103 1.313l.168 1.118c.028.241.07.48.123.72.053.238.1.471.14.698.072.327.138.661.199 1.002.072.327.138.66.198 1 .043.279.08.55.11.816.055.265.085.53.089.798l-.001.574c0 .191-.027.384-.078.58-.036.231-.11.478-.22.74a2.7 2.7 0 01-.54.82.374.374 0 00-.128.103c-.142.162-.3.3-.47.413a2.621 2.621 0 01-.517.301c-.187.076-.386.152-.598.23a4.28 4.28 0 01-.6.191c-.29.057-.58.101-.871.133-.266.03-.552.042-.859.036a6.682 6.682 0 00-.515.014 3.347 3.347 0 01-.5-.044 2.462 2.462 0 01-.328-.037l-.345-.016a1.422 1.422 0 00-.252-.041l-.269-.021a.676.676 0 01-.31-.057 1.887 1.887 0 01-.292-.077l-.802-.273a2.362 2.362 0 01-.821-.579zm21.98 20.523a.991.991 0 01-.237-.374.574.574 0 01-.018-.283c.02-.048-.01-.076-.094-.082-.06-.008-.09-.036-.094-.083a.394.394 0 00-.046-.174c-.05-.044-.059-.085-.026-.122a.28.28 0 00.064-.11.17.17 0 00.045-.127c-.053-.092-.048-.198.015-.32a.975.975 0 00.045-.127.636.636 0 00.042-.162.403.403 0 01.079-.165.975.975 0 00.045-.127.27.27 0 00.061-.145c.065-.099.111-.202.14-.31a1.88 1.88 0 01.12-.327.624.624 0 01.144-.24 2.2 2.2 0 01.658-.52.624.624 0 00.353-.289.406.406 0 01.132-.15.283.283 0 00.151-.133 2.4 2.4 0 00.078-.165l.116-.131a.278.278 0 01.063-.11l.199-.226a1.27 1.27 0 00.193-.296.759.759 0 01.13-.185l.61-.695a8.587 8.587 0 00.709-1.108.47.47 0 00.08-.13l.1-.112c.241-.276.434-.583.578-.923l.148-.169c.146-.116.227-.233.243-.352.032-.061.086-.136.163-.223l.017-.019a5.07 5.07 0 00.311-.392c.11-.125.226-.245.349-.359.223-.203.432-.441.627-.713l.264-.3c.088-.1.165-.2.23-.299l.098-.112a.613.613 0 00.186-.136l.132-.15c.132-.15.253-.3.361-.449.132-.15.246-.305.343-.465l.099-.113a.567.567 0 00.096-.147.409.409 0 00.105-.308l-.033-.228a.71.71 0 01.07-.572.23.23 0 01.03-.073.222.222 0 00.048-.091c.03-.085.092-.13.186-.136a.563.563 0 00.207-.084.278.278 0 01.101-.078.63.63 0 00.156-.063c.045-.026.096-.06.153-.098.058-.016.088-.012.09.012.087.077.16.12.22.127a.38.38 0 01.314.21c.015.035.058.062.13.08.012.012.024.01.035-.002a.382.382 0 01.289.088c.086.054.168.125.244.215.013.01.02.028.021.051l.038.033c.078.114.15.221.215.323.09.1.183.183.282.248.063.055.12.116.171.184a1.7 1.7 0 00.19.2c.05.044.088.089.115.134.04.057.072.108.099.154a.558.558 0 01.081.171c.027.046.065.09.115.135.052.067.09.124.118.17a.98.98 0 01.1.188c.086.23.177.455.274.673.042.104.067.214.074.332.033.14.075.243.126.31.013.012.02.029.021.052l.038.033c.001.024.008.041.021.052.012.011.02.028.021.052a.947.947 0 00.093.348.69.69 0 01.129.346.58.58 0 00.046.174.972.972 0 01.115.4c.003.047.01.077.023.087.05.044.079.125.086.243l.032.76c.005.094.005.17-.003.23a2.567 2.567 0 00-.009.426l.028.423c.003.047 0 .1-.008.16a.241.241 0 01-.007.16.392.392 0 00-.01.125c.014.034.016.07.007.106.005.27 0 .543-.019.816a6.422 6.422 0 01-.07.837c-.014.142-.04.286-.078.43a4.167 4.167 0 01-.133.416l-.119.362a3.17 3.17 0 01-.1.378 3.5 3.5 0 00-.198.491c-.093.207-.18.407-.263.602a6.113 6.113 0 01-.297.603l-.159.294-.28.319a3.417 3.417 0 01-.262.336.552.552 0 01-.134.114.403.403 0 01-.154.099.872.872 0 00-.219.174 1.54 1.54 0 01-.407.274 3.23 3.23 0 01-.412.203 8.973 8.973 0 00-.829.337l-.207.084a1.393 1.393 0 01-.172.082l-.31.126c-.242.098-.503.18-.782.245-.256.064-.519.11-.788.14a1.768 1.768 0 01-.353.022 3.073 3.073 0 00-.336.004l-.673.008c-.213-.01-.433-.025-.658-.046a5.525 5.525 0 01-.61-.103 2.76 2.76 0 01-.577-.175.638.638 0 00-.325-.086 5.493 5.493 0 01-.376-.064 12.67 12.67 0 00-.392-.046.633.633 0 00-.163-.043 2.378 2.378 0 01-.164-.078 2.4 2.4 0 01-.165-.078l-.145-.061a.976.976 0 00-.2-.076.994.994 0 00-.195-.005 1.62 1.62 0 01-.414-.098 4.81 4.81 0 00-.449-.095.43.43 0 01-.148-.096.231.231 0 01-.112-.1l-.113-.099-.017.02-.112-.1zm2.6-1.442a.84.84 0 00.385.205c.133.05.265.09.397.116.132.027.263.043.393.046l.423-.027c.213.01.42.002.619-.022.211-.014.418-.01.62.013l.071-.004.247-.016c.094-.006.182-.018.264-.035l.176-.011a.536.536 0 00.158-.028.94.94 0 01.404-.044c.096.018.166.013.212-.013a1.73 1.73 0 01.259-.106c.105-.018.205-.03.299-.037.128-.02.29-.077.484-.172l.24-.122c.23-.11.41-.239.543-.39a.758.758 0 00.167-.152c.178-.176.341-.388.49-.633l.128-.221c.043-.074.086-.136.13-.186.031-.06.058-.116.078-.164a.309.309 0 00.078-.165.978.978 0 01.076-.2l.094-.183a.806.806 0 00.16-.258l.124-.291.085-.325a3.1 3.1 0 01.138-.345l.047-.092c.006-.083.019-.16.038-.232a.893.893 0 00.092-.219c.05-.156.098-.313.147-.47.062-.145.105-.296.13-.451a6.52 6.52 0 00.091-.52c.037-.167.043-.339.02-.514a7.265 7.265 0 00-.252-1.72 2.453 2.453 0 00-.395-.914 2.444 2.444 0 00-.251-.32 4.57 4.57 0 00-.27-.337.17.17 0 00-.127-.045.308.308 0 00-.259.105 3.02 3.02 0 01-.266.265l-.248.282c-.129.197-.261.335-.398.415l-.17.117c-.044.05-.087.112-.13.186a.317.317 0 01-.2.19.37.37 0 00-.214.244c-.038.144-.136.28-.293.408-.17.117-.302.268-.396.45a.823.823 0 01-.114.168.511.511 0 01-.148.169c-.121.137-.236.28-.344.43a6.982 6.982 0 01-.307.462.385.385 0 00-.062.145l-.264.3a.412.412 0 01-.101.078.221.221 0 00-.047.092 3.215 3.215 0 01-.225.368l-.189.367a.41.41 0 00-.064.11.278.278 0 01-.063.11 2.43 2.43 0 00-.213.28c-.064.099-.134.203-.21.315-.27.383-.528.79-.772 1.218a2.565 2.565 0 01-.356.52l-.116.13a.47.47 0 00-.08.13c-.052.11-.117.208-.194.296l-.23.263a.411.411 0 01-.102.077.278.278 0 00-.064.11.67.67 0 01-.127.221l-.149.169a.824.824 0 00-.127.22c-.055.063-.045.128.03.194zm9.166 11.988a5.177 5.177 0 01-.326-.387 1.514 1.514 0 01-.255-.39l-.321-.582a4.986 4.986 0 01-.269-.603l-.182-.626a3.07 3.07 0 00-.04-.334 3.047 3.047 0 00-.038-.334l-.037-.565c0-.2.01-.402.032-.604l.16-1.091c.042-.274.102-.544.179-.809a7.81 7.81 0 01.303-.799c.192-.496.448-.926.767-1.289l.265-.3c.275-.313.563-.603.865-.87.245-.229.5-.405.763-.528.16-.081.314-.168.462-.26.147-.092.296-.172.445-.241l.172-.082c.168-.14.35-.235.548-.283.209-.06.4-.126.572-.196.138-.056.272-.094.4-.115.14-.032.273-.07.4-.114a.445.445 0 01.177-.011.992.992 0 00.193-.03.314.314 0 00.139-.045c.069-.028.126-.055.171-.082a1.46 1.46 0 01.264-.034c.108.028.254.001.438-.081a.58.58 0 01.174-.047c.13.003.258-.017.386-.06.14-.033.28-.054.42-.063a.372.372 0 00.257-.14l.149-.17a.51.51 0 00.148-.168.238.238 0 01.205-.12.313.313 0 00.14-.044l.136-.08c.147-.092.341-.11.58-.055a.169.169 0 01.128.045c.06.032.116.058.164.078.12.04.227.122.317.246.04.056.078.101.115.134l.146.062c.072.019.132.038.18.059.062.031.117.057.165.078.23.091.406.257.528.497.134.252.163.51.085.774l-.09.254c-.03.085-.066.164-.109.237a.89.89 0 01-.332.34.438.438 0 00-.12.061.174.174 0 00-.078.165.447.447 0 00.011.176c.028.246.05.487.064.722.026.223.035.453.027.69.012.188 0 .366-.037.533a2.94 2.94 0 01-.09.52c-.03.084-.06.18-.088.289l-.052.287c-.037.167-.091.33-.164.489l-.18.507-.016.019a2.49 2.49 0 01-.192.33 2.2 2.2 0 00-.135.382c-.04.12-.09.242-.153.364-.052.11-.11.225-.173.347l-.222.404c-.061.146-.135.28-.222.404l-.095.184c-.02.048-.046.103-.077.164l-.222.404a4.227 4.227 0 01-.241.387l-.06.181c-.04.097-.104.22-.189.367-.105.195-.23.375-.373.537-.13.174-.279.343-.445.507a1.187 1.187 0 01-.2.19 10.33 10.33 0 01-.992.56l-.381.13a5.503 5.503 0 00-.365.113l-.4.114a2.4 2.4 0 01-.47.119c-.302.09-.606.133-.914.13a8.87 8.87 0 01-.943-.064c-.735-.047-1.386-.342-1.952-.884zm1.56-1.925c.262.231.553.354.873.369.118-.008.23-.009.337-.004.13.004.247-.004.353-.023a4.602 4.602 0 001.29-.33l.22-.139a4.02 4.02 0 00.595-.675l.432-.72c.105-.195.212-.379.319-.551.118-.185.218-.374.3-.568.04-.121.087-.2.144-.24a.63.63 0 00.165-.188c.042-.073.079-.152.109-.237a9.32 9.32 0 00.297-.604l.28-.62.06-.145.062-.146a8.75 8.75 0 00.164-.755c.043-.25.063-.5.059-.748a2.194 2.194 0 00-.025-.388 4.46 4.46 0 00-.044-.404c.01-.036.002-.065-.023-.087a.288.288 0 00-.023-.087c.006-.083-.05-.121-.167-.114l-.388.025-.386.06c-.14.033-.286.06-.438.082l-.419.098a7.595 7.595 0 00-.54.123l-.523.14a7.625 7.625 0 00-1.858.863.794.794 0 00-.186.136l-.269.23-.247.281-.132.15a.473.473 0 01-.08.13.472.472 0 00-.081.129 1.66 1.66 0 00-.316.587c-.12.338-.222.682-.306 1.03-.084.347-.138.7-.163 1.055l-.02.25a1.88 1.88 0 010 .265c.003.224.022.442.06.652.05.22.11.43.182.626.084.207.195.37.332.492zm12.48 13.938a.52.52 0 01-.133-.151 1.384 1.384 0 00-.082-.172l-.08-.137-.046-.174.024-.179c-.003-.047-.017-.081-.042-.103-.075-.066-.08-.137-.014-.212l.16-.258.162-.258c.086-.124.172-.248.26-.371.098-.113.18-.23.242-.353l.149-.169a.55.55 0 00.096-.147l.116-.132c.03-.085.074-.135.132-.15.223-.203.421-.429.594-.676.043-.074.092-.142.147-.204.055-.063.103-.13.146-.204l.33-.376c.121-.138.224-.28.31-.427l.263-.3c.088-.1.165-.2.23-.299.076-.087.147-.18.212-.28l.26-.37c.098-.113.191-.23.278-.355a.43.43 0 01.096-.147l.128-.221.181-.207.77-.988.21-.315.247-.281.359-.484c.12-.161.234-.316.342-.465a.223.223 0 00.047-.091l.05-.057c.132-.15.258-.305.377-.467l.375-.502.406-.575a3.01 3.01 0 01.56-.674.474.474 0 01.378-.166c.047-.003.077 0 .09.012l.07-.005c.074.043.144.027.21-.049.022-.024.058-.015.108.029l.094.083.019.016c.023-.001.041.003.053.014a.29.29 0 00.09.012c.047-.003.077.001.09.012a.23.23 0 01.058.085c.025.022.044.05.058.085.025.022.05.032.073.03.074.043.13.104.171.184.064.079.11.153.139.222.064.078.076.178.037.299-.062.145-.13.285-.204.42-.05.133-.119.262-.205.385l-.132.15c-.052.11-.122.215-.21.315l-.248.282-.231.263-.16.258-.1.113a.472.472 0 00-.08.129l-.198.225-.177.277-.342.465c-.12.161-.246.317-.378.467l-.181.207c-.055.062-.104.13-.147.204a.47.47 0 01-.08.129l-.099.113-.33.375a1.052 1.052 0 00-.146.204.833.833 0 01-.213.28 2.311 2.311 0 00-.195.26l-.704.913a5.26 5.26 0 01-.328.411 5.26 5.26 0 01-.327.411l-.149.169a.816.816 0 00-.113.167.472.472 0 01-.08.129 99.97 99.97 0 01-.1.112c.002.024-.02.049-.066.076a.222.222 0 00-.047.091 1.27 1.27 0 01-.193.296l-.248.282-.149.169a.93.93 0 01-.13.185 1.405 1.405 0 01-.162.223l-.182.207a1.405 1.405 0 01-.163.223c-.055.062-.103.13-.146.204a.223.223 0 01-.047.092 3.02 3.02 0 00-.326.446l-.288.479a.556.556 0 01-.097.148l-.099.112a.17.17 0 01-.12.061c-.083-.006-.186.036-.31.126-.034.038-.08.053-.14.045a.947.947 0 00-.357-.048.698.698 0 01-.472-.182zm6.492 5.341a.344.344 0 00-.096-.118c-.025-.022-.034-.063-.026-.123a.804.804 0 00.007-.16c.008-.059.022-.125.041-.197.007-.083-.025-.11-.094-.082l-.037-.033c.01-.013.01-.025-.003-.036l.017-.019a2.72 2.72 0 00.26-.636l.151-.4a4.74 4.74 0 01.241-.387l.614-.925.538-.726.033-.037c.107-.172.227-.334.359-.484l.429-.488c.064-.099.13-.185.196-.26.077-.088.148-.181.212-.28l.227-.333.247-.282 1.323-1.467 1.767-2.008c.041-.098.036-.168-.014-.212a.414.414 0 00-.11-.064l-.076-.066-1.042-.518-.438-.184a4.524 4.524 0 00-.42-.203l-.296-.194-.244-.214a.508.508 0 01-.14-.257.947.947 0 01-.094-.348 4.108 4.108 0 01-.006-.372l.012-.09c.052-.109.099-.212.14-.31.064-.098.141-.186.23-.262.112-.102.231-.186.357-.253.138-.057.284-.084.437-.082a.45.45 0 00.177-.011l.211-.014a.431.431 0 01.127.045.731.731 0 00.24.144c.095.018.18.048.254.09l.22.128.221.127c.219.104.433.215.641.331.22.104.428.22.625.35l1.162.722a.19.19 0 01.073.031c.025.022.05.032.073.03.097.042.189.089.275.143a.616.616 0 01.209.216.184.184 0 00.04.069c.036.01.06.02.072.03l.705.487c.234.162.469.312.702.45l.554.355c.185.118.364.242.538.373.147.085.288.176.425.273l.408.293.334.227.352.243c.111.075.205.158.281.247l.301.264a.368.368 0 01.119.205c.03.093.059.174.087.243.017.081.031.204.041.37a.57.57 0 01-.073.234 2.99 2.99 0 01-.078.165 2.99 2.99 0 01-.078.164.62.62 0 01-.319.286l-.343.164a.64.64 0 01-.156.063.384.384 0 01-.122.026l-.071.004a2.625 2.625 0 01-.268-.036.562.562 0 01-.253-.09l-.857-.653a1.825 1.825 0 00-.242-.18 2.273 2.273 0 00-.261-.195l-.094-.083a10.882 10.882 0 00-.631-.455l-.629-.42-.85-.548c-.038-.033-.068-.049-.092-.047-.05-.044-.121-.04-.212.013l-.049.056-.33.376a4.675 4.675 0 00-.295.373 1.665 1.665 0 01-.462.526l-.137.08-.066.075c-.12.16-.275.313-.467.455l-.099.112a.46.46 0 00-.08.13.953.953 0 01-.13.185l-.165.188-.858.976c-.044.05-.106.107-.184.171l-.165.188-.149.169a1.27 1.27 0 01-.146.204l-.231.263a1.415 1.415 0 01-.248.282l-.512.582c-.01.012-.028.02-.052.02a.192.192 0 00-.03.074 4.304 4.304 0 01-.295.373 2.07 2.07 0 00-.26.37l-.099.113a.231.231 0 01-.099.113 2.428 2.428 0 00-.276.39 4.226 4.226 0 01-.24.387l-.289.48c-.083.17-.173.335-.27.495l-.174.312c-.033.038-.08.053-.139.045l-.019-.017-.035.002c-.084-.03-.142-.014-.174.047l-.083.094-.035.002c-.01.013-.023.013-.035.002a.238.238 0 00-.216-.057.853.853 0 01-.247.016 1.11 1.11 0 01-.217-.057.95.95 0 01-.483-.358zm29.955 21.048a.348.348 0 00-.078-.131c-.022-.025-.024-.067-.008-.125a.789.789 0 00.031-.157c.017-.058.04-.121.069-.189.018-.081-.009-.113-.081-.096l-.032-.038c.012-.01.013-.022.003-.035a.228.228 0 01.019-.016c.145-.189.262-.386.35-.592l.208-.373a3.98 3.98 0 01.295-.348l.742-.826.638-.639.038-.033c.131-.154.273-.297.425-.426l.496-.42c.078-.088.156-.165.232-.229.089-.076.172-.158.251-.246l.272-.297.286-.242 1.523-1.258 2.04-1.73c.055-.09.061-.161.018-.212a.45.45 0 00-.1-.079l-.065-.076-.956-.664-.406-.246a4.434 4.434 0 00-.386-.263l-.264-.234a58.63 58.63 0 00-.211-.248.517.517 0 01-.101-.275.963.963 0 01-.042-.358c.01-.117.026-.24.049-.368l.024-.087c.068-.101.129-.196.184-.287.078-.088.167-.163.267-.226.125-.084.254-.15.388-.198a1.11 1.11 0 01.445-.017.437.437 0 00.176.014l.212.018c.068.029.108.05.119.063a.72.72 0 00.216.177.827.827 0 01.238.126l.2.159.199.158c.202.135.397.275.587.421.201.135.39.28.567.437l1.044.884a.19.19 0 01.068.041c.021.025.044.039.067.041.09.055.174.115.252.18a.637.637 0 01.175.245.177.177 0 00.029.074.186.186 0 01.068.041l.626.583c.208.195.418.378.628.549l.497.431c.166.144.325.293.478.447.133.106.26.217.38.333l.362.349.296.273c.11.104.214.201.313.292.099.091.18.186.243.286l.259.305a.372.372 0 01.088.22c.016.096.032.18.05.253a2.77 2.77 0 01-.013.371.567.567 0 01-.107.222 2.336 2.336 0 01-.101.151 2.09 2.09 0 01-.101.151.619.619 0 01-.357.237l-.364.112a.61.61 0 01-.162.04.387.387 0 01-.125.007 45.429 45.429 0 00-.071-.006 2.564 2.564 0 01-.26-.074.581.581 0 01-.238-.126l-.752-.772a1.854 1.854 0 00-.213-.212 2.26 2.26 0 00-.229-.232l-.081-.095a10.488 10.488 0 00-.559-.543l-.561-.507-.761-.666c-.032-.038-.06-.058-.084-.06-.043-.051-.113-.057-.211-.018l-.057.049-.382.323a5.13 5.13 0 00-.346.326c-.145.189-.323.34-.534.453l-.146.059-.077.065a2.242 2.242 0 01-.528.382l-.114.097a.486.486 0 00-.099.116.872.872 0 01-.155.164l-.191.162-.991.841c-.051.043-.12.09-.207.142l-.191.162-.171.146a1.296 1.296 0 01-.175.18l-.267.227a1.379 1.379 0 01-.286.242l-.591.501c-.013.011-.031.016-.054.014a.171.171 0 00-.041.067 4.06 4.06 0 01-.347.326 2.026 2.026 0 00-.31.33 5.354 5.354 0 00-.115.097.23.23 0 01-.114.097 2.37 2.37 0 00-.33.345 4.299 4.299 0 01-.295.348l-.355.432a6.1 6.1 0 01-.339.451l-.218.284c-.038.032-.086.04-.144.023l-.016-.019-.035-.003c-.08-.042-.139-.035-.179.021l-.096.081-.035-.003c-.013.011-.024.01-.035-.003a.24.24 0 00-.206-.088.884.884 0 01-.246-.02 1.127 1.127 0 01-.206-.088.945.945 0 01-.426-.425zm7.905 10.136a5.226 5.226 0 01-.266-.43 1.526 1.526 0 01-.196-.424l-.232-.622a4.904 4.904 0 01-.178-.636l-.089-.646a3.22 3.22 0 00.01-.336c.009-.117.013-.23.01-.336l.046-.564c.028-.199.068-.396.12-.593l.317-1.056c.081-.265.18-.523.295-.774.128-.261.266-.51.416-.746.263-.463.579-.851.947-1.164l.305-.258c.318-.27.646-.515.983-.735.276-.191.553-.327.832-.411.17-.057.335-.12.495-.19.159-.069.318-.127.475-.173l.182-.056c.187-.115.382-.182.584-.201.216-.029.414-.066.595-.11.145-.036.282-.054.412-.055.143-.012.281-.03.413-.055a.438.438 0 01.176.015c.07.006.135.005.195-.002a.308.308 0 00.144-.024c.072-.017.133-.036.182-.055.06-.007.148-.006.266.004.102.044.251.038.444-.017a.577.577 0 01.18-.021c.128.023.258.022.39-.003.143-.012.285-.012.426 0a.372.372 0 00.274-.102l.172-.145a.52.52 0 00.171-.146.238.238 0 01.221-.088.304.304 0 00.143-.024l.147-.059c.16-.069.354-.059.583.031a.163.163 0 01.119.063c.056.04.106.073.151.101a.64.64 0 01.278.289c.03.061.062.111.094.149l.135.082c.069.03.126.058.171.085.055.04.106.074.151.101.214.125.364.314.45.57a.995.995 0 01-.029.778l-.126.238a1.444 1.444 0 01-.142.219.889.889 0 01-.379.288.438.438 0 00-.127.042.173.173 0 00-.101.152.435.435 0 00-.015.176c-.008.247-.022.489-.042.724a4.423 4.423 0 01-.074.685 1.892 1.892 0 01-.114.523 2.96 2.96 0 01-.165.501c-.042.079-.085.17-.129.273l-.094.276a2.34 2.34 0 01-.233.46l-.252.476-.019.016a2.44 2.44 0 01-.238.3c-.067.1-.13.219-.189.356a2.363 2.363 0 01-.205.338c-.067.101-.141.207-.221.319l-.279.367a2.192 2.192 0 01-.278.368l-.121.167a2.09 2.09 0 01-.101.151l-.278.368a4.299 4.299 0 01-.295.348l-.085.17c-.055.09-.135.202-.24.335a2.828 2.828 0 01-.448.478 4.46 4.46 0 01-.515.436 1.165 1.165 0 01-.225.159c-.332.15-.686.287-1.063.409l-.396.074c-.12.014-.245.033-.377.058l-.413.054c-.168.034-.329.05-.483.049a3 3 0 01-.922-.005 8.684 8.684 0 01-.923-.2c-.721-.154-1.322-.54-1.803-1.159zm1.823-1.677c.227.267.497.431.811.492.118.01.229.025.333.046.129.022.246.032.353.029a4.61 4.61 0 001.324-.14l.239-.104a4.15 4.15 0 00.687-.582l.532-.648c.133-.178.265-.345.396-.5a3.79 3.79 0 00.379-.518c.057-.114.116-.186.178-.216a.617.617 0 00.19-.162 1.4 1.4 0 00.143-.219c.133-.178.26-.363.382-.554l.367-.573a9.73 9.73 0 01.082-.135l.082-.135c.102-.24.193-.481.272-.722.079-.242.135-.486.167-.732.022-.128.033-.257.032-.387.011-.141.017-.277.016-.407.014-.034.011-.064-.011-.089a.283.283 0 00-.01-.09c.018-.081-.031-.127-.149-.136a51.12 51.12 0 00-.387-.032l-.391.003a5.32 5.32 0 01-.444.017l-.429.035c-.19.008-.374.023-.553.043l-.538.063a7.573 7.573 0 00-1.963.583.793.793 0 00-.204.107l-.3.188-.286.243-.152.129a.464.464 0 01-.099.116.502.502 0 00-.098.116c-.152.13-.285.308-.399.535a10.35 10.35 0 00-.452.974 6.308 6.308 0 00-.315 1.021l-.055.243a1.84 1.84 0 01-.04.263c-.03.222-.042.44-.036.653.017.226.047.442.089.646.053.217.139.396.257.536zm8.16 14.65c-.056-.04-.075-.089-.059-.147l-.015-.249a1.02 1.02 0 00-.015-.25.747.747 0 01.057-.474 1.36 1.36 0 01.427-.657c.063-.054.121-.114.174-.181.064-.054.122-.114.175-.18a.943.943 0 00.155-.165l.172-.145.191-.162c.076-.065.14-.13.193-.197.013-.011.014-.023.003-.035l.019-.016c-.021-.026-.044-.04-.067-.041l-.481.013a1.26 1.26 0 01-.371-.013 3.268 3.268 0 00-.333-.045 5.263 5.263 0 01-.899-.287 3.779 3.779 0 01-.305-.167 4.579 4.579 0 01-1.293-1.1l-.334-.47a2.353 2.353 0 01-.315-.488 57.59 57.59 0 01-.176-.44 2.572 2.572 0 01-.068-.467l.002-.461c.014-.164.039-.327.076-.49.096-.3.153-.49.171-.571.019-.081.097-.246.236-.495l.091-.241c.069-.124.127-.25.173-.376.069-.124.144-.242.224-.354l.186-.322c.068-.101.129-.196.183-.286l.203-.303c.122-.191.249-.375.382-.554.146-.189.285-.372.418-.551l.295-.348a.225.225 0 00.06-.083l.114-.097.456-.584c.053-.066.105-.121.156-.164l.171-.146c.091-.099.188-.191.289-.278.113-.073.22-.153.322-.239.15-.106.3-.2.449-.282.161-.094.316-.181.465-.264l.663-.3c.245-.098.482-.179.712-.243.193-.055.381-.104.562-.149.194-.055.392-.091.594-.11.288-.048.575-.083.86-.107.297-.011.587-.017.871-.017.201.005.395.015.583.03l.602.015c.329.027.643.088.942.184.15.047.275.117.374.208a.375.375 0 01.099.079.292.292 0 00.1.079.999.999 0 01.305.398l.058.146c.031.062.056.117.076.166.076.219.162.398.257.536a.797.797 0 01.15.331c.041.075.076.154.104.24l.124.223c.065.076.1.156.104.239.011.013.016.031.014.054l.048.057c.074.113.124.223.15.332.04.098.066.206.08.326.036.275.066.567.087.876a.57.57 0 01-.216.479l-.096.081c-.12.167-.305.258-.554.273a1.474 1.474 0 01-.359.042 1.552 1.552 0 01-.327-.116 1.409 1.409 0 00-.17-.085.636.636 0 01-.149-.136.382.382 0 00-.1-.079l-.064-.077a.226.226 0 01-.097-.114.489.489 0 00-.078-.131c-.024-.002-.034-.026-.03-.073l-.013-.48a1.606 1.606 0 00-.294-.964.805.805 0 00-.11-.169 1.135 1.135 0 01-.126-.188.768.768 0 00-.473-.287l-.247-.02c-.224-.007-.454-.02-.688-.039l-.673-.02a1.756 1.756 0 00-.499.03l-.505.1a7.002 7.002 0 00-1.646.609l-.262.156-.223.124-.19.161a1.303 1.303 0 00-.175.181.84.84 0 01-.136.149.757.757 0 00-.118.132l-.409.445c-.065.077-.137.16-.215.248-.055.09-.115.174-.181.252-.388.547-.76 1.125-1.118 1.734a2.97 2.97 0 00-.302.65l-.074.259-.056.244-.017.212c.013.119.036.21.066.271.123.223.271.436.444.64.241.232.507.379.798.438.139.035.273.052.403.051.141.012.283.011.426 0 .307.001.611-.027.912-.085a.283.283 0 00.212-.213c.063-.184.084-.366.063-.545a2.824 2.824 0 00-.124-.649 1.509 1.509 0 00-.271-.589l-.042-.128a.625.625 0 00-.275-.324.938.938 0 01-.3-.238l-.204-.318a2.023 2.023 0 01-.197-.85 2.39 2.39 0 01.078-.295c.042-.08.072-.16.091-.241a.238.238 0 00.06-.084c.025-.021.05-.031.073-.029l.191-.162.223-.123a1.012 1.012 0 01.418-.126c.107-.003.207 0 .301.007.363.042.673.162.928.361.157.107.301.225.432.355.144.118.277.235.397.351l1.358 1.602.275.324c.097.115.2.224.31.327.099.091.186.181.262.27l.258.305c.097.115.164.233.202.354.08.172.089.35.027.534a2.785 2.785 0 01-.075.26.77.77 0 01-.126.238c-.002.024-.016.046-.041.068a.194.194 0 00-.041.067l-.592.732a3.278 3.278 0 01-.276.332l-.311.329-.21.178a1.299 1.299 0 01-.174.181l-.172.145a1.299 1.299 0 01-.174.181l-.878.744-.305.258-.272.297a.848.848 0 01-.137.149l-.171.145a1.9 1.9 0 00-.385.359 4.858 4.858 0 01-.352.396 6.981 6.981 0 01-.177.216c-.042.08-.096.158-.161.236a.945.945 0 01-.156.164.943.943 0 01-.324.275.366.366 0 01-.22.088.568.568 0 00-.179.021c-.183.068-.389.057-.618-.033a2.665 2.665 0 01-.454-.304.837.837 0 00-.3-.237zm5.148 4.371a.532.532 0 01-.11-.169.683.683 0 00-.124-.223.976.976 0 01-.164-.155l-.033-.038a.076.076 0 01-.051-.022 2.52 2.52 0 01-.245-.251.937.937 0 01-.156-.261.077.077 0 00-.013-.055.333.333 0 01-.118-.293c.009-.118.013-.23.01-.336a.379.379 0 01.129-.274l.104-.186a.57.57 0 01.215-.248.11.11 0 00.077-.065l.076-.065a.214.214 0 01.06-.083.292.292 0 00.079-.1c.093-.123.191-.239.295-.349.127-.107.253-.203.378-.288a2.6 2.6 0 01.495-.19c.255-.085.407-.137.456-.157a.433.433 0 00.201-.072c.129-.131.264-.256.404-.375.163-.117.315-.234.454-.353a.453.453 0 01.259-.12.422.422 0 00.302-.224l.161-.235c.075-.195.201-.291.379-.288l.019-.016a.075.075 0 00.054-.013c.047.003.084-.017.112-.062a.629.629 0 01.098-.116.825.825 0 01.168-.11.364.364 0 00.188-.127l.006-.07a.521.521 0 01.136-.149c.088-.052.137-.083.15-.094l.534-.453c.074-.041.137-.083.188-.126.063-.054.132-.101.207-.143a.905.905 0 00.229-.194l.266-.226c.053-.067.112-.139.178-.216l.229-.194a.272.272 0 01.079-.1l.095-.081.159-.2.19-.161c.026-.022.087-.117.184-.287.109-.18.22-.307.332-.38a.28.28 0 00.112-.062.17.17 0 00.063-.119c-.009-.036.006-.07.044-.103l.057-.048a.847.847 0 00.409-.445.406.406 0 01.181-.252.324.324 0 00.115-.327c.01-.118.038-.239.084-.366a.955.955 0 01.186-.321c.052-.067.111-.127.174-.181l.172-.146c.051-.043.088-.063.111-.061a.316.316 0 00.237-.07.748.748 0 01.187-.126c.024.002.041.009.052.022.011.013.028.02.051.022.056.04.122.028.198-.037a.405.405 0 01.101-.151c.041-.056.101-.075.182-.056.073-.018.113.003.119.063.038.121.137.212.297.272.069.03.108.051.119.063l.049.058c.023.002.062.034.116.098.052.087.136.135.254.145.164.014.3.084.408.211l1.003 1.182c.235.303.483.596.743.877a26.457 26.457 0 01.876.995l.168.12a.767.767 0 01.283.219l.372.438.226.267.265.235c.056.04.1.079.132.117l.129.153.13.152a.841.841 0 00.148.137c.099.09.197.193.294.308.11.103.208.206.294.308l.113.133.168.12c.111.08.205.165.28.254.099.091.193.175.281.254.099.091.192.175.281.253.099.091.192.176.28.254.097.114.155.208.172.28.014.12.029.227.045.323.026.109.035.222.025.339a.488.488 0 01-.053.209l-.12.167c-.04.056-.086.117-.139.184l-.134.113a8.634 8.634 0 00-.242.14 1.647 1.647 0 01-.226.159.679.679 0 01-.214.017l-.634-.052a2.656 2.656 0 01-.4-.317 2.209 2.209 0 01-.307-.362l-.113-.133a1.25 1.25 0 01-.324-.382.905.905 0 00-.194-.229l-.194-.228a.805.805 0 00-.148-.137.739.739 0 01-.094-.149.62.62 0 00-.162-.191 1.184 1.184 0 00-.164-.156 1.197 1.197 0 00-.165-.155l-.145-.172a4.5 4.5 0 01-.491-.501 5.055 5.055 0 00-.491-.502 1.186 1.186 0 00-.294-.308 30.48 30.48 0 01-.313-.292 3.355 3.355 0 01-.294-.308 1.74 1.74 0 00-.313-.291 1.69 1.69 0 00-.38-.333 4.125 4.125 0 01-.365-.314l-.132-.117a1.022 1.022 0 00-.248-.216 2.874 2.874 0 00-.268-.199l-.167-.121a1.197 1.197 0 00-.165-.155.401.401 0 00-.151-.101c-.045-.028-.099-.014-.163.04l-.123.202c-.015.035-.084.082-.207.143a2.89 2.89 0 01-.261.156.46.46 0 00-.098.116 9.73 9.73 0 00-.082.135c-.07.124-.168.24-.295.348a1.71 1.71 0 00-.292.313.943.943 0 01-.155.165 1.184 1.184 0 00-.156.164 6.236 6.236 0 01-.095.081.283.283 0 01-.079.1c-.039.032-.069.048-.093.046a.366.366 0 00-.22.088l-.191.162a1.101 1.101 0 01-.3.418l-.382.324c-.038.032-.024.075.043.127l.016.019a.597.597 0 01.179-.02.406.406 0 00.152.101.35.35 0 01.167.12c.074.113.154.208.243.286l.302.202c.659.469 1.331.861 2.014 1.177.182.086.357.189.524.309a2.6 2.6 0 01.484.377l.048.058.329.31c.11.104.214.213.311.327.142.142.285.272.429.391.154.131.303.267.445.409.101.067.19.134.267.199.09.055.192.111.306.167.203.112.365.237.483.377.074.112.129.229.166.351.05.11.088.232.112.364.035.298-.075.555-.329.771a1.651 1.651 0 01-.338.22 3.436 3.436 0 00-.321.24c-.025.021-.062.03-.109.026l-.143.024-.185.091a.224.224 0 01-.196.002 20.387 20.387 0 00-.42-.07.872.872 0 01-.359-.154l-.168-.12a.567.567 0 01-.132-.118 7.067 7.067 0 00-.572-.596c-.198-.182-.401-.371-.61-.565a8.076 8.076 0 00-.477-.447 3.72 3.72 0 01-.442-.445 2.195 2.195 0 00-.532-.434 23.939 23.939 0 01-.416-.336 5.836 5.836 0 01-.413-.371 5.008 5.008 0 00-.332-.275l-.297-.273-.332-.276a.339.339 0 01-.116-.098 2.558 2.558 0 01-.283-.218 2.676 2.676 0 00-.284-.219 2.57 2.57 0 00-.284-.218 7.73 7.73 0 01-.286-.184.38.38 0 00-.206-.087.379.379 0 00-.195.001.23.23 0 00-.114.097.285.285 0 01-.169.111c-.116.12-.238.234-.365.342-.117.12-.244.228-.382.323-.08.112-.176.205-.288.278a3.323 3.323 0 01-.322.24.973.973 0 00-.365.342 1.18 1.18 0 01-.547.398c-.098.04-.149.083-.153.13-.016.058-.061.095-.133.113l-.115.097c-.112.073-.125.161-.039.263l.032.038a.597.597 0 01.131.348.286.286 0 00.137.277l.51.485c.077.066.148.137.213.213.077.066.148.136.213.213.034.014.06.058.078.13.016.096.058.159.127.188a.32.32 0 01.138.047c.055.04.107.062.154.066a.38.38 0 01.319.221c.06.124.137.201.229.232a.96.96 0 01.313.292.429.429 0 00.181.174.665.665 0 01.199.159c.022.025.032.05.03.073.011.013.028.02.051.022.022.025.05.045.084.06a.184.184 0 01.067.041.582.582 0 01.249.216l.081.095a.32.32 0 01.113.134.56.56 0 01.056.182.558.558 0 01.072.201c.018.072.042.139.072.201.022.025.031.05.029.073.004.107.024.221.061.342.048.134.052.229.012.285a.961.961 0 01-.196.232 1.58 1.58 0 00-.194.197.489.489 0 01-.131.078.483.483 0 01-.13.078 4.059 4.059 0 01-.253.05.666.666 0 01-.268.031l-.141-.012a.384.384 0 01-.125.008 1.139 1.139 0 01-.279-.059.526.526 0 01-.235-.161.35.35 0 00-.116-.098.436.436 0 01-.168-.12l-.145-.172-.265-.235a2.377 2.377 0 01-.191-.264.308.308 0 00-.113-.133 1.021 1.021 0 01-.342-.365 5.14 5.14 0 00-.343-.366 104.25 104.25 0 01-.291-.343l-.21-.248a.283.283 0 00-.1-.079.563.563 0 01-.2-.158 1.353 1.353 0 01-.142-.207l-.162-.191-.048-.057a.106.106 0 01-.065-.076.489.489 0 00-.078-.131.83.83 0 01-.119-.063l-.065-.076c-.023-.002-.046-.016-.067-.041a2.259 2.259 0 00-.307-.362 23.5 23.5 0 01-.384-.298zm10.924 12.576a.323.323 0 00-.078-.131c-.021-.025-.024-.067-.007-.125a.802.802 0 00.031-.157c.016-.058.039-.121.068-.189.019-.082-.008-.113-.08-.096l-.033-.038c.013-.011.014-.022.003-.035l.019-.016a2.73 2.73 0 00.351-.592l.208-.373c.093-.123.191-.239.294-.349l.742-.825.638-.64.039-.032c.131-.155.272-.297.425-.426l.496-.42a2.27 2.27 0 01.231-.23c.089-.075.173-.157.251-.245l.273-.297.286-.242 1.523-1.258 2.04-1.73c.055-.09.06-.161.017-.212a.386.386 0 00-.1-.079l-.064-.076-.957-.664-.405-.247a4.66 4.66 0 00-.386-.262l-.265-.235-.21-.248a.506.506 0 01-.102-.274.944.944 0 01-.041-.358c.01-.118.026-.24.048-.369l.025-.086c.067-.101.128-.197.183-.287.078-.088.167-.163.267-.226.125-.084.255-.151.389-.199.145-.035.293-.041.445-.016a.454.454 0 00.176.014l.211.018c.069.029.109.05.119.063a.745.745 0 00.216.177.77.77 0 01.238.126l.2.159.2.158c.202.135.397.275.586.421.202.135.391.28.567.437l1.045.884a.171.171 0 01.067.041c.022.025.044.039.068.041.09.055.174.115.251.18a.61.61 0 01.175.245.197.197 0 00.03.074.18.18 0 01.067.041l.626.583c.209.195.418.378.629.549l.497.431c.165.144.324.293.477.447.133.106.26.217.381.333l.361.349.297.273.313.292c.099.091.18.186.242.286l.259.305a.364.364 0 01.088.22c.016.096.033.18.051.252.005.084 0 .207-.013.372a.582.582 0 01-.107.222 2.84 2.84 0 01-.101.151 2.388 2.388 0 01-.102.151.613.613 0 01-.356.237l-.364.112a.66.66 0 01-.163.04.416.416 0 01-.125.007l-.07-.006a2.564 2.564 0 01-.26-.074.575.575 0 01-.238-.126l-.752-.772a1.786 1.786 0 00-.214-.212 2.162 2.162 0 00-.229-.232l-.081-.096a11.275 11.275 0 00-.558-.542l-.561-.508-.761-.665c-.033-.038-.061-.059-.084-.06-.043-.051-.114-.057-.212-.018l-.057.049-.381.323c-.115.097-.23.206-.346.326-.146.189-.324.34-.534.453l-.147.059-.076.064c-.142.142-.318.27-.528.383l-.115.097a.46.46 0 00-.098.116.94.94 0 01-.155.164l-.191.162-.992.841c-.051.043-.12.09-.207.142l-.19.162-.172.145a1.299 1.299 0 01-.174.181l-.267.227a1.433 1.433 0 01-.286.242l-.592.501c-.012.011-.03.015-.054.013a.2.2 0 00-.041.068c-.104.11-.219.219-.346.326a2.112 2.112 0 00-.311.329l-.114.097a.232.232 0 01-.115.097 2.49 2.49 0 00-.33.346 4.5 4.5 0 01-.294.348l-.355.432a6.716 6.716 0 01-.339.451l-.218.283c-.039.033-.087.041-.144.024l-.016-.019-.036-.003c-.079-.042-.139-.035-.179.021l-.095.081-.035-.003c-.013.011-.025.01-.036-.003a.235.235 0 00-.205-.088.891.891 0 01-.247-.02 1.121 1.121 0 01-.205-.088.957.957 0 01-.427-.425zm11.792 14.874a1.814 1.814 0 01-.275-.324.758.758 0 01-.106-.434.577.577 0 00-.021-.18c-.015-.095-.003-.171.037-.227a.243.243 0 00.05-.173.364.364 0 01.068-.19.486.486 0 01.099-.116.739.739 0 00.149-.094.464.464 0 00.099-.116l.114-.097.475-.6c.171-.21.341-.409.51-.596l.235-.265.235-.264c.154-.153.303-.312.447-.478.154-.152.304-.312.447-.477.08-.112.159-.2.235-.265.102-.086.192-.173.27-.261.091-.099.175-.193.253-.281.066-.077.066-.154.002-.23l-.094-.15a1.512 1.512 0 00-.159-.226 1.784 1.784 0 01-.175-.245l-.162-.191a.339.339 0 01-.116-.098l-.129-.152a.404.404 0 00-.13-.153.8.8 0 00-.148-.136 1.104 1.104 0 01-.11-.169c.002-.023-.02-.049-.065-.076l-.065-.077a1.635 1.635 0 00-.196-.193l-.162-.191-.097-.114a.46.46 0 00-.116-.098l-.265-.235-.226-.267a2.504 2.504 0 00-.323-.381l-.362-.35-.048-.057c-.08-.042-.145-.041-.196.002-.012.011-.03.015-.054.013l-.019.016a.633.633 0 00-.136.149l-.254.28a16.26 16.26 0 01-.254.281l-.409.445a5.536 5.536 0 00-.333.381 4.299 4.299 0 01-.295.348c-.001.024-.015.046-.041.068a.2.2 0 00-.041.067.72.72 0 01-.177.216l-.229.194c.009.036-.022.052-.092.046l-.109.026a.216.216 0 00-.092.046 1.06 1.06 0 01-.573.059c-.209-.041-.369-.113-.479-.217-.01-.012-.028-.02-.051-.022l-.049-.057a1.276 1.276 0 01-.414-.566l-.01-.09a.24.24 0 00.049-.173.799.799 0 01-.004-.16.454.454 0 00.014-.176.553.553 0 01.085-.17c.013-.011.014-.023.003-.036a.607.607 0 01.129-.273l.197-.232.256-.316c.104-.11.202-.226.295-.348l.349-.362.647-.745.234-.264c.091-.099.176-.192.254-.281l.562-.574.349-.362c.116-.12.227-.247.333-.38l.171-.146c.102-.086.198-.179.289-.277.102-.087.192-.174.27-.262a.46.46 0 01.098-.116l.115-.097a.943.943 0 00.155-.165c.064-.054.122-.114.175-.18l.352-.397c.129-.131.253-.281.373-.448a3.246 3.246 0 00.49-.776c.057-.113.119-.221.186-.322a.94.94 0 00.145-.254.772.772 0 01.363-.307l.383-.128c.061-.03.138-.03.23.001a.435.435 0 01.176.015c.071.006.135.017.193.033a.284.284 0 01.1.08c.019.048.069.094.148.136l.087.025c.16.06.257.175.291.343l.085.255c.039.098.049.2.028.304.052.087.038.187-.042.298l-.236.495c-.13.285-.277.563-.441.833-.164.27-.363.526-.595.767-.079.088-.163.182-.254.281-.067.101-.147.2-.238.299l-.152.13a.416.416 0 00-.117.132 2.942 2.942 0 01-.27.262 3.43 3.43 0 01-.289.277l-.038.033a.228.228 0 00-.037.227l.059.147.097.114c.067.053.11.104.129.153l.13.152.21.248c.077.066.154.143.229.232l.194.229a.5.5 0 01.078.13c.043.051.087.09.132.118l.049.057a.184.184 0 01.067.041c.095.138.197.27.305.398.12.116.234.238.342.365.095.138.197.27.304.397.121.117.235.238.343.366.086.101.16.202.223.302l.243.286c.075.089.151.101.227.036l.21-.178c.076-.064.141-.13.194-.196.129-.132.245-.252.349-.362.127-.108.249-.222.365-.342.167-.164.333-.316.499-.456.188-.138.355-.29.498-.456l.387-.393c.14-.119.263-.245.369-.378l.267-.226a.346.346 0 01.13-.078l.057-.049a.2.2 0 00.074-.029c.063-.054.091-.099.082-.135l-.011-.09c-.013-.119.033-.181.14-.184a.217.217 0 00.187-.126c.039-.032.069-.048.093-.046l.179-.02a.568.568 0 00.182-.056c.172-.081.284-.077.336.01.076.089.111.157.108.204-.002.023.002.041.013.054a.075.075 0 00.054-.013c.076-.065.153-.065.231.001.077.065.138.112.183.139l.174.05.048.057c.028.085.04.163.034.234l.053.217c.009.036.01.089.005.16a1.409 1.409 0 01-.277.562 22.32 22.32 0 00-.298.384 3.956 3.956 0 01-.314.364l-.076.065a.238.238 0 01-.06.084l-.117.132c-.153.129-.3.265-.442.407a5.867 5.867 0 01-.39.429c-.002.023-.022.051-.06.084-.1.062-.194.131-.283.207-.066.077-.144.165-.235.264a2.69 2.69 0 01-.289.278 3.157 3.157 0 01-.289.278l-.21.178a8.817 8.817 0 00-.177.216 1.29 1.29 0 01-.174.18l-.191.162-.191.162a4.08 4.08 0 01-.139.183l-.076.065-.426.426a5.867 5.867 0 01-.39.429c-.002.024-.022.052-.06.084-.14.119-.275.255-.406.41a6.093 6.093 0 01-.371.413l-.619.623-.076.065a.225.225 0 01-.06.083.53.53 0 01-.137.149c-.114.097-.223.2-.327.31a4.299 4.299 0 01-.295.348c-.105.133-.216.26-.333.381a6.47 6.47 0 00-.351.396 7.53 7.53 0 00-.377.484 8.2 8.2 0 01-.377.483.915.915 0 01-.156.165.937.937 0 01-.155.164.485.485 0 01-.239.105.278.278 0 00-.109.026c-.025.022-.061.031-.108.027-.024-.002-.042.002-.055.013-.012.011-.024.01-.035-.003a.314.314 0 00-.208-.053.498.498 0 01-.228-.036.619.619 0 01-.292-.113l-.187-.104zm4.551 4.71a.512.512 0 01-.111-.169.663.663 0 00-.123-.223.943.943 0 01-.165-.155l-.032-.038a.076.076 0 01-.052-.022 2.417 2.417 0 01-.245-.251.923.923 0 01-.156-.261c.002-.024-.002-.042-.013-.055a.335.335 0 01-.118-.293c.01-.117.013-.23.01-.336a.382.382 0 01.129-.273l.104-.187a.579.579 0 01.216-.248.108.108 0 00.076-.065l.076-.065a.225.225 0 01.06-.083.28.28 0 00.079-.1c.093-.123.192-.239.295-.348.127-.108.253-.204.379-.289.087-.052.252-.115.494-.189.256-.086.408-.138.457-.158a.433.433 0 00.201-.072c.129-.131.263-.256.403-.375.163-.116.315-.234.455-.353a.45.45 0 01.258-.12.422.422 0 00.302-.224l.161-.235c.076-.195.202-.291.379-.288l.019-.016c.024.002.042-.002.054-.013.047.004.084-.017.112-.062a.67.67 0 01.098-.116.805.805 0 01.169-.11.368.368 0 00.188-.127l.005-.07a.53.53 0 01.137-.149c.087-.052.137-.083.149-.094l.534-.452a1.2 1.2 0 00.188-.127c.064-.054.133-.101.207-.142a.909.909 0 00.229-.195l.267-.226.177-.216.229-.194a.292.292 0 01.079-.1l.096-.081.158-.199.191-.162c.025-.022.086-.117.183-.287.109-.18.22-.307.333-.38a.272.272 0 00.111-.062.17.17 0 00.063-.119c-.009-.036.006-.07.044-.103l.057-.048a.849.849 0 00.41-.445.408.408 0 01.18-.252.324.324 0 00.116-.327 1.39 1.39 0 01.083-.366.99.99 0 01.186-.321c.053-.067.111-.127.174-.181l.172-.146c.051-.043.088-.063.112-.061a.314.314 0 00.236-.07.778.778 0 01.188-.126c.023.002.04.009.051.022.011.013.028.02.052.022.055.04.121.028.198-.037a.401.401 0 01.101-.151c.04-.056.101-.075.182-.056.072-.018.112.003.119.063.037.121.136.212.297.273.068.029.108.05.119.063l.048.057c.024.002.062.034.116.098.052.087.137.135.254.145a.582.582 0 01.409.211l1.002 1.182c.235.304.483.596.744.878.26.281.509.562.746.841l.13.153.167.12a.778.778 0 01.284.219l.371.438.227.267.264.235c.056.04.1.079.132.117l.13.153.129.152a.811.811 0 00.149.137c.098.091.196.193.293.308.11.103.208.206.294.308l.114.133.167.12c.112.081.205.165.281.254.099.091.192.176.28.254.099.091.193.175.281.253.099.091.192.176.281.254a.787.787 0 01.172.28c.013.12.028.227.044.323.027.109.035.222.025.339a.49.49 0 01-.052.209l-.121.167c-.04.056-.086.117-.139.184l-.133.113a7.405 7.405 0 00-.242.14 1.71 1.71 0 01-.226.159.717.717 0 01-.215.018l-.634-.053a2.65 2.65 0 01-.4-.316 2.312 2.312 0 01-.307-.363l-.113-.133a1.25 1.25 0 01-.323-.382.903.903 0 00-.194-.228l-.194-.229a.811.811 0 00-.149-.137.786.786 0 01-.094-.149.631.631 0 00-.161-.191 1.137 1.137 0 00-.165-.155 1.142 1.142 0 00-.165-.156l-.145-.171a4.603 4.603 0 01-.491-.502 4.946 4.946 0 00-.491-.502 1.186 1.186 0 00-.294-.308 30.48 30.48 0 01-.313-.292 3.231 3.231 0 01-.294-.308 1.74 1.74 0 00-.313-.291 1.719 1.719 0 00-.38-.333 4.116 4.116 0 01-.364-.314l-.133-.117a1.022 1.022 0 00-.248-.216 3.04 3.04 0 00-.267-.199l-.168-.121a1.244 1.244 0 00-.164-.155.406.406 0 00-.152-.101c-.045-.027-.099-.014-.163.04l-.123.202c-.014.035-.083.082-.207.143a2.67 2.67 0 01-.261.156.46.46 0 00-.098.116l-.082.135a1.264 1.264 0 01-.295.348 1.78 1.78 0 00-.292.313.943.943 0 01-.155.165 1.184 1.184 0 00-.156.164 6.236 6.236 0 01-.095.081.274.274 0 01-.079.1c-.038.032-.069.048-.093.046a.366.366 0 00-.22.088l-.19.162a1.114 1.114 0 01-.301.418l-.381.324c-.038.032-.024.075.042.127l.017.02a.568.568 0 01.179-.021.393.393 0 00.151.101.355.355 0 01.167.12c.074.113.155.208.243.286l.303.202c.659.469 1.33.861 2.013 1.177.183.086.357.189.525.31.18.109.341.235.483.376l.049.058.329.311c.11.103.213.212.31.327.142.141.285.271.429.39.155.131.303.267.445.409.101.067.19.134.268.199.09.055.191.111.305.167.204.112.365.237.483.377.074.113.129.229.167.351.05.11.087.232.112.364.034.298-.076.555-.33.771a1.63 1.63 0 01-.337.22c-.113.074-.22.154-.322.24-.025.022-.061.03-.108.027l-.144.023a15.79 15.79 0 01-.185.091.222.222 0 01-.195.002c-.129-.022-.268-.046-.42-.07a.868.868 0 01-.36-.154l-.168-.12a.561.561 0 01-.132-.117 6.913 6.913 0 00-.571-.597c-.198-.182-.402-.37-.61-.565a8.444 8.444 0 00-.478-.447 3.72 3.72 0 01-.442-.445 2.176 2.176 0 00-.532-.434 29.463 29.463 0 01-.416-.335 6.649 6.649 0 01-.413-.371 4.498 4.498 0 00-.332-.276l-.296-.273-.332-.276a.34.34 0 01-.117-.098c-.1-.067-.195-.14-.283-.218a2.706 2.706 0 00-.284-.219 2.558 2.558 0 00-.283-.218 9.176 9.176 0 01-.287-.183.378.378 0 00-.205-.088.383.383 0 00-.196.001.235.235 0 00-.114.097.282.282 0 01-.169.111c-.116.12-.238.234-.365.342a2.448 2.448 0 01-.381.323c-.08.112-.177.205-.289.278a3.436 3.436 0 01-.321.24.977.977 0 00-.366.342 1.19 1.19 0 01-.547.399c-.098.039-.149.082-.152.129-.017.058-.061.095-.134.113l-.114.097c-.113.074-.126.161-.04.263l.033.038a.604.604 0 01.131.348c-.01.117.036.21.136.277l.51.486c.078.065.149.136.213.212.078.066.149.137.213.213.035.015.061.058.078.13.016.096.058.159.127.188a.32.32 0 01.138.047.32.32 0 00.154.066.382.382 0 01.319.221c.061.124.137.201.229.232a.95.95 0 01.313.292.434.434 0 00.181.174.67.67 0 01.2.159c.021.025.031.05.029.073.011.013.028.02.052.022a.205.205 0 00.083.06.207.207 0 01.068.041.585.585 0 01.248.216l.081.095c.056.04.094.085.113.134a.537.537 0 01.056.182.558.558 0 01.072.201c.018.072.042.139.072.201.022.025.032.05.03.073.003.107.023.221.06.342.048.134.052.229.012.285a.94.94 0 01-.196.232 1.73 1.73 0 00-.194.197.483.483 0 01-.13.078.489.489 0 01-.131.078 3.303 3.303 0 01-.252.05.671.671 0 01-.269.031l-.141-.011a.416.416 0 01-.125.007 1.185 1.185 0 01-.279-.058.528.528 0 01-.235-.162.35.35 0 00-.116-.098.44.44 0 01-.167-.12l-.146-.172-.264-.234a2.24 2.24 0 01-.191-.265.317.317 0 00-.114-.133 1.03 1.03 0 01-.342-.365 5.126 5.126 0 00-.342-.365l-.291-.344-.211-.248a.28.28 0 00-.099-.079.546.546 0 01-.2-.158 1.291 1.291 0 01-.143-.207l-.162-.191-.048-.057a.106.106 0 01-.065-.076.442.442 0 00-.078-.131.83.83 0 01-.119-.063l-.064-.076c-.024-.002-.046-.016-.068-.041a2.209 2.209 0 00-.307-.362 22.38 22.38 0 01-.383-.298zm8.707 10.773a.849.849 0 01-.273-.785c.012-.141.035-.281.071-.42.035-.139.087-.271.156-.395.124-.215.254-.423.389-.625a15.5 15.5 0 01.439-.602c.108-.157.225-.289.352-.397.129-.131.247-.263.352-.396.129-.132.264-.257.404-.375l.229-.194c.089-.076.166-.152.231-.229.04-.056.079-.1.118-.133l.133-.113.534-.453c.191-.161.37-.324.537-.487.102-.087.185-.168.251-.246.078-.088.145-.189.202-.302.097-.17.244-.306.441-.408.039-.032.069-.047.093-.045.11-.05.21-.113.299-.188.1-.063.189-.139.267-.227.053-.066.111-.127.175-.18l.171-.146c.129-.131.264-.256.404-.375.163-.116.32-.228.471-.333a.5.5 0 00.13-.078l.115-.097c.129-.132.262-.245.4-.34.149-.082.292-.171.43-.266.174-.104.342-.202.503-.296.174-.103.354-.201.539-.292a.747.747 0 00.242-.14l.229-.194c.063-.054.121-.114.174-.181l.172-.145.114-.097a.442.442 0 01.131-.078.483.483 0 00.13-.078c.038-.032.069-.048.093-.046.083-.005.154-.011.214-.017a.484.484 0 01.23.001c.093.031.179.056.26.074.092.032.173.062.241.091.08.042.154.066.225.072.107-.003.207-.001.301.007.117.01.23.001.339-.025.117.009.241.014.371.012.154.001.294.025.42.071a.77.77 0 00.193.033c.269.034.509.137.719.308a.382.382 0 01.1.079.46.46 0 01.116.098l.171.085c.124.069.18.175.169.316a.955.955 0 00-.034.192c.018.072.03.138.037.198a4.086 4.086 0 01-.043.529 2.372 2.372 0 01-.117.558c-.096.299-.208.58-.336.841-.117.274-.246.547-.386.82l-.529 1.038a.582.582 0 00-.129.273 3.402 3.402 0 01-.397.73c-.148.213-.302.431-.462.654a.238.238 0 01-.06.084.225.225 0 01-.06.083 3.286 3.286 0 01-.276.333c-.08.111-.177.204-.289.277a1.35 1.35 0 01-.359.272 3.411 3.411 0 01-.354.202c-.16.069-.318.127-.476.173-.144.036-.301.07-.469.104a.702.702 0 01-.323.044 3.193 3.193 0 01-.333-.045 1.551 1.551 0 00-.488-.111.32.32 0 01-.138-.047.384.384 0 00-.122-.028 6.941 6.941 0 00-.376-.173l-.373-.208c-.011-.013-.029-.008-.054.013-.013.011-.02.028-.022.052l.074.822c.016.096.026.185.031.268.018.073.029.151.034.234l.04.163c.04.228.074.461.102.7.028.239.05.471.067.697.061.407.115.82.164 1.238.061.407.092.817.093 1.231.018.356-.011.709-.087 1.057a1.574 1.574 0 01-.036.228c-.006.07 0 .142.018.214l-.009.106c-.005.354-.15.673-.434.957a.437.437 0 01-.13.078 5.354 5.354 0 01-.115.097.336.336 0 01-.255.086c-.068-.03-.122-.028-.16.004a.472.472 0 01-.336-.01.973.973 0 00-.276-.093.425.425 0 01-.132-.118c-.052-.087-.11-.18-.172-.28a1.873 1.873 0 00-.175-.245c-.087-.102-.134-.247-.142-.437-.001-.13-.003-.249-.006-.355.01-.118.032-.246.067-.385.089-.359.115-.753.08-1.182a43.644 43.644 0 00-.021-.605 3.71 3.71 0 00-.076-.591 55.298 55.298 0 00-.074-.397 1.816 1.816 0 00-.054-.412 34.099 34.099 0 00-.196-1.506l-.192-1.541a2.557 2.557 0 00-.031-.269l-.047-.288a.57.57 0 00-.021-.179c-.043-.051-.084-.06-.122-.028-.013.011-.031.016-.054.014l-.019.016-.115.097a.46.46 0 00-.098.116 3.297 3.297 0 01-.289.278l-.286.242-.229.194a8.817 8.817 0 01-.177.216l-.134.113a.46.46 0 01-.098.116 1.394 1.394 0 00-.327.31 4.148 4.148 0 01-.295.349l-.398.534a6.151 6.151 0 01-.14.184c-.04.056-.086.117-.139.184a.398.398 0 01-.153.129.739.739 0 01-.149.094c-.013.011-.043.014-.09.011-.066-.053-.149-.06-.246-.021a.792.792 0 01-.375.023c-.13.001-.259-.01-.387-.032a.276.276 0 01-.103-.044.83.83 0 00-.119-.063zm7.304-4.915l.033.038.432.355c.167.12.336.229.505.325.157.108.329.169.517.185a.552.552 0 00.418-.125c.1-.063.183-.133.248-.211.089-.075.167-.163.235-.264.186-.245.36-.491.522-.738.175-.257.326-.517.454-.778l.312-.56c.095-.146.178-.292.249-.44.084-.159.157-.319.217-.479l.044-.103a1.1 1.1 0 00.063-.119l.012-.141c.018-.081-.019-.126-.113-.133-.011-.013-.04-.021-.087-.025-.19.008-.381.028-.573.059a1.497 1.497 0 00-.516.241l-.185.092-.172.145-.82.695a10.34 10.34 0 00-.569.45c-.18.174-.369.324-.569.45a.437.437 0 00-.13.078.506.506 0 01-.099.116 1.854 1.854 0 01-.212.213l-.21.178c-.127.107-.193.185-.197.232.007.06.071.148.191.264z" fill="#FF8A00"/></svg>