<svg width="203" height="196" fill="none" xmlns="http://www.w3.org/2000/svg"><path d="M81.021 117.098a.413.413 0 01-.13.094 1.04 1.04 0 00-.144.052l-.115.053a7.016 7.016 0 01-.142.023l-.14-.033c-.038-.001-.067.008-.086.026-.058.055-.115.053-.17-.006l-.193-.148-.193-.148-.275-.235a1.395 1.395 0 00-.262-.221l-.123-.132a.437.437 0 00-.11-.088l-.096-.102c-.064-.031-.101-.07-.109-.117a3.23 3.23 0 00-.492-.526 1.086 1.086 0 01-.151-.132 1.024 1.024 0 00-.151-.133l-.273-.292c-.1-.107-.206-.2-.317-.279l-.218-.234a2.105 2.105 0 00-.22-.205 1.89 1.89 0 00-.206-.191l-.275-.236a3.47 3.47 0 00-.26-.249.336.336 0 01-.11-.089l-.166-.118-.15-.161-.728-.689c-.082-.069-.16-.133-.234-.192l-.205-.219-.357-.323a55.49 55.49 0 00-.344-.309.19.19 0 00-.069-.045l-.04-.043a5.825 5.825 0 00-.343-.337l-.371-.338-.427-.368a2.41 2.41 0 01-.492-.497.38.38 0 01-.103-.315c.001-.038.007-.061.016-.07l.002-.057c.04-.055.032-.112-.022-.17-.019-.02-.008-.048.03-.084l.074-.069.014-.013c.001-.019.006-.033.016-.042a.242.242 0 00.016-.07c.002-.038.007-.062.017-.071a.187.187 0 01.072-.04.187.187 0 01.072-.04c.02-.018.03-.036.03-.055a.34.34 0 01.16-.122.71.71 0 01.187-.093c.067-.045.148-.047.24-.006.112.06.218.125.32.194.102.051.199.115.29.194l.11.117c.083.05.161.114.234.191l.205.22.191.204.193.148.082.088c.028.029.06.053.097.074l.164.175.207.162.343.309c.12.108.233.22.343.337l.15.16c.046.049.096.093.151.133.037.02.07.045.097.074l.082.087.273.293a.862.862 0 00.151.132.65.65 0 01.206.191c.055.058.119.117.193.176l.672.631c.1.088.201.186.301.293.101.088.202.186.302.293l.123.131a.623.623 0 00.124.103.396.396 0 01.096.074l.082.088c.02.001.037.02.055.058.018.02.041.035.07.045.083.05.156.109.22.177a23.918 23.918 0 00.328.351.74.74 0 01.137.118c.056.039.11.088.165.147l.15.16c.056.04.11.089.165.147.046.049.096.093.152.133.028.01.05.025.069.044.1.108.21.206.33.294l.359.267c.037.02.073.05.11.089l.082.087a.14.14 0 01.039.101c-.012.065.014.151.076.257.028.029.036.067.025.114a.756.756 0 00-.066.281.56.56 0 01-.182.362zm4.758-4.753a.281.281 0 00-.101.068c-.02.018-.053.021-.1.01a.633.633 0 00-.127-.018 1.267 1.267 0 01-.154-.048c-.065-.011-.09.012-.073.069l-.029.027c-.009-.01-.018-.01-.028-.001l-.014-.014a2.173 2.173 0 00-.487-.257l-.306-.152a3.211 3.211 0 01-.29-.222l-.688-.56-.536-.485-.027-.029a2.937 2.937 0 01-.358-.324l-.355-.379a1.777 1.777 0 01-.192-.177 1.986 1.986 0 00-.206-.19l-.248-.207-.205-.219-1.064-1.167-1.463-1.563c-.074-.04-.13-.042-.17-.006a.345.345 0 00-.059.083l-.058.055-.493.79-.181.334a3.45 3.45 0 00-.195.319l-.177.22-.19.178a.412.412 0 01-.215.092.77.77 0 01-.285.047 3.19 3.19 0 01-.296-.024l-.07-.017a5.914 5.914 0 00-.236-.135.987.987 0 01-.191-.204 1.418 1.418 0 01-.174-.303.894.894 0 01-.03-.355.361.361 0 00.004-.142l.005-.169a.354.354 0 01.046-.098.577.577 0 00.133-.179.625.625 0 01.092-.195l.119-.166.118-.166c.1-.166.205-.328.314-.485.1-.166.208-.323.326-.47l.666-.869a.154.154 0 01.03-.056c.02-.018.03-.037.03-.055.04-.075.086-.144.135-.208a.496.496 0 01.189-.15.148.148 0 00.057-.026.164.164 0 01.03-.056l.442-.523c.148-.174.285-.348.414-.523l.325-.414c.108-.138.221-.271.339-.399.079-.111.163-.216.25-.317.09-.101.177-.202.266-.303l.206-.248c.079-.091.152-.178.22-.261.07-.083.143-.151.22-.205l.234-.219a.294.294 0 01.172-.079 2.53 2.53 0 00.2-.05c.066-.007.165-.008.297-.004a.454.454 0 01.181.077c.038.02.08.045.125.075.037.02.08.045.125.075.102.069.17.161.203.275l.104.287c.018.038.03.081.038.128a.319.319 0 01.011.1l-.002.056a2.116 2.116 0 01-.05.211.454.454 0 01-.09.195l-.588.631a1.451 1.451 0 00-.161.179 1.835 1.835 0 00-.177.192l-.073.068a9.127 9.127 0 00-.411.468l-.384.468-.502.634c-.03.028-.044.051-.045.07-.039.036-.04.092-.006.169l.041.044.274.292c.082.088.173.176.274.264.157.109.284.245.383.409l.052.115.055.058a1.8 1.8 0 01.326.407l.082.088c.027.029.06.054.097.074.046.03.092.069.137.118l.137.146.71.759c.037.039.078.092.122.16l.137.146.123.131c.055.04.106.084.151.133l.191.204c.074.059.142.132.205.219l.424.453c.01.01.013.024.013.043a.14.14 0 00.055.03c.092.079.184.167.275.264.082.088.173.166.275.235l.082.088c.037.02.064.049.082.088.082.087.178.171.288.25.102.069.199.143.29.222l.36.266c.129.08.253.165.373.253l.235.164c.027.029.035.067.025.114l-.015.014-.001.028c-.03.065-.023.112.024.142l.068.073-.001.028c.009.01.009.02-.001.029a.188.188 0 00-.062.167.697.697 0 01-.007.198.882.882 0 01-.062.168.76.76 0 01-.323.357zm.24-10.987a.313.313 0 01-.275.175l-.155-.02a.135.135 0 01-.098-.045.778.778 0 00-.196-.064 2.315 2.315 0 00-.21-.049 1.368 1.368 0 01-.853-.326 1.627 1.627 0 01-.246-.262 7.67 7.67 0 01-.162-.232.928.928 0 01-.09-.272c-.06-.2-.129-.382-.208-.545a4.181 4.181 0 00-.295-.49c-.08-.126-.166-.256-.256-.391s-.175-.266-.256-.39a.755.755 0 00-.134-.203 263.042 263.042 0 01-.315-.336.608.608 0 00-.15-.161 1.577 1.577 0 01-.163-.204 2.384 2.384 0 00-.134-.23 1.196 1.196 0 01-.165-.558 1.02 1.02 0 01.217-.587c.236-.275.514-.407.834-.397.048-.007.1-.01.156-.008l.142.004a.355.355 0 01.28.066.7.7 0 01.167.09c.046.03.092.07.138.118l.109.117c.036.04.087.083.151.133.054.077.113.16.176.246.073.078.136.165.19.261.053.077.112.169.174.275l.19.26.189.262c.063.087.121.178.175.274.053.097.111.198.174.303.072.097.14.198.202.304l.148.217a2.4 2.4 0 01.134.231c.035.077.075.158.12.245a1.793 1.793 0 01.272.73l-.002.057c.016.095.022.199.018.312-.013.103-.04.211-.081.323a.379.379 0 00.018.283c.01.01.032.053.067.13a.421.421 0 01.002.354zm11.23 1.626l-.29.188-.448.311c-.145.099-.29.207-.436.325a1.129 1.129 0 01-.518.266.745.745 0 01-.563-.076 1.233 1.233 0 00-.18-.105l-.167-.119c-.109-.116-.167-.227-.173-.331a1.053 1.053 0 00-.02-.255 2.165 2.165 0 01-.005-.241.306.306 0 01.017-.098l.031-.084a.62.62 0 01.091-.195 1.18 1.18 0 01.105-.181c.01-.028.025-.041.044-.041l.044-.041c.058-.036.12-.076.188-.121a.598.598 0 01.188-.121l.695-.486a.788.788 0 00.31-.4c.022-.056.037-.107.048-.154a5.065 5.065 0 00.234-1.068c.017-.216.028-.428.035-.635a3.47 3.47 0 00-.035-.624.914.914 0 00-.115-.386 1.342 1.342 0 00-.259-.306l-.153-.076a.304.304 0 00-.167-.062 1.31 1.31 0 01-.184-.02 3.647 3.647 0 01-.325.003 1.03 1.03 0 00-.297.004c-.256.02-.507.045-.753.074-.237.02-.478.046-.724.075-.028-.01-.076-.002-.142.024-.143.023-.29.042-.44.056a6.618 6.618 0 00-.44 0 4.108 4.108 0 00-.58.023.615.615 0 01-.298.004.951.951 0 00-.312.018c-.104.025-.209.04-.313.046a3.57 3.57 0 00-.325.003l-.354.003a1.146 1.146 0 00-.254-.009 2.461 2.461 0 00-.268-.023.364.364 0 00-.197-.035 1.313 1.313 0 01-.184-.02.313.313 0 00-.098-.017.504.504 0 01-.126-.047 8.444 8.444 0 00-.518-.173 5.64 5.64 0 01-.502-.215c-.102-.05-.2-.096-.293-.137a9.655 9.655 0 00-.263-.164.863.863 0 00-.25-.15l-.25-.15a3.85 3.85 0 00-.36-.238c-.119-.09-.234-.173-.345-.252l-.138-.09a2.2 2.2 0 01-.287-.307 2.497 2.497 0 01-.254-.447.779.779 0 01-.07-.455l.074-.507a1.95 1.95 0 01.129-.477c.02-.018.03-.036.03-.055a1.14 1.14 0 01.171-.461c.08-.149.165-.292.255-.43.34-.574.726-1.127 1.159-1.66l.146-.137.277-.26a3.83 3.83 0 00.264-.273 1.97 1.97 0 01.392-.285c.135-.09.279-.16.431-.212a3.89 3.89 0 01.357-.087c.114-.034.228-.058.342-.073a.51.51 0 01.324.053l.14.061c.13.042.24.112.332.21.091.078.173.175.245.29.027.03.054.068.08.117l.083.087a.931.931 0 01.158.784c-.016.197-.121.368-.315.513-.057.017-.067.045-.03.084.036.038.03.08-.02.126l-.087.082c-.058.055-.144.08-.257.077-.094-.004-.155-.02-.182-.049-.037-.039-.045-.086-.024-.142a2.341 2.341 0 00-.181-.077.468.468 0 00-.14-.033.32.32 0 00-.228.02l-.173.108-.174.108-.13.123a7.322 7.322 0 00-.174.107c-.039.018-.078.064-.118.138l-.06.11a.587.587 0 01-.116.082l-.102.096a.322.322 0 00-.075.124l-.237.304a1.866 1.866 0 00-.289.599l-.06.11a.186.186 0 01-.088.083.216.216 0 00-.105.18c.009.029-.002.066-.032.112a.136.136 0 00-.046.098c-.002.075.015.132.051.171.028.01.06.035.097.074l1.14.604c.204.101.414.18.63.234.215.035.436.066.661.092.348.04.673.046.976.019l.836-.043c.18-.004.36-.017.54-.039.18-.022.354-.04.524-.053.247-.03.497-.054.753-.074.246-.03.497-.054.752-.074.208-.012.411-.02.61-.022.198-.022.397-.025.594-.009l.423.042c.141.015.282.048.421.1.169.043.346.115.53.215.232.13.42.283.566.458.008.028.03.062.067.101.11.117.2.242.27.377.072.115.134.25.185.402.043.143.085.296.127.457.042.143.075.295.098.456.02.218.032.435.034.652a4.75 4.75 0 01-.035.636 4.975 4.975 0 00-.027.381 2.505 2.505 0 01-.068.366c-.013.084-.03.164-.05.239l-.038.253c-.02.056-.036.117-.048.182l-.035.197a.506.506 0 01-.064.225 1.423 1.423 0 01-.078.209l-.26.572a1.762 1.762 0 01-.485.564zm11.484-11.895a.419.419 0 01-.13.095.541.541 0 00-.174.107.73.73 0 01-.117.138l-.03.027c0 .02-.005.033-.015.042a1.995 1.995 0 01-.191.206.747.747 0 01-.203.135c-.018 0-.033.004-.042.013a.27.27 0 01-.23.105 2.415 2.415 0 00-.269.005.307.307 0 01-.224-.092l-.153-.076a.463.463 0 01-.207-.162.083.083 0 00-.054-.059l-.055-.058a.175.175 0 01-.069-.045.227.227 0 00-.083-.06 3.343 3.343 0 01-.29-.221 3.412 3.412 0 01-.245-.291 2.051 2.051 0 01-.171-.388c-.078-.2-.126-.32-.144-.359a.342.342 0 00-.065-.157 4.79 4.79 0 01-.315-.308c-.1-.126-.2-.243-.3-.35a.356.356 0 01-.106-.201.34.34 0 00-.191-.233l-.194-.12c-.159-.052-.24-.15-.245-.29l-.014-.016c.001-.018-.003-.033-.012-.042.001-.038-.017-.067-.054-.087a.596.596 0 01-.097-.074.647.647 0 01-.094-.13.293.293 0 00-.109-.146l-.056-.001a.42.42 0 01-.124-.104 1.61 1.61 0 00-.081-.116l-.383-.409a.975.975 0 00-.108-.145.997.997 0 01-.122-.16.735.735 0 00-.164-.175l-.191-.204a5.503 5.503 0 01-.18-.133l-.164-.176a.228.228 0 01-.083-.059l-.068-.073-.166-.119-.137-.146a1.366 1.366 0 00-.236-.135.94.94 0 01-.317-.251.22.22 0 00-.053-.087.137.137 0 00-.098-.046c-.029.009-.057-.001-.084-.03l-.041-.044a.677.677 0 00-.372-.31.327.327 0 01-.207-.134.26.26 0 00-.267-.08 1.123 1.123 0 01-.295-.052.789.789 0 01-.264-.136 1.015 1.015 0 01-.151-.133l-.124-.131c-.036-.04-.054-.068-.053-.087a.249.249 0 00-.065-.186.609.609 0 01-.108-.145c0-.019.006-.033.015-.042.01-.01.015-.023.016-.042.03-.046.017-.098-.037-.157a.322.322 0 01-.125-.075c-.046-.03-.064-.077-.052-.143-.017-.057-.002-.09.046-.097.095-.035.164-.118.206-.248a.348.348 0 01.046-.098l.044-.04c0-.02.025-.052.074-.097.067-.045.102-.115.106-.21a.463.463 0 01.152-.334l.906-.847c.233-.2.457-.409.672-.628a20.092 20.092 0 01.76-.74c.03-.045.06-.091.089-.138a.63.63 0 01.164-.235l.336-.314.204-.191.177-.22a.604.604 0 01.089-.111l.117-.11.117-.109a.665.665 0 00.103-.123c.069-.083.147-.165.234-.247a3.13 3.13 0 01.235-.247l.102-.096.09-.139c.06-.092.123-.17.192-.234.068-.082.132-.16.191-.234.069-.082.133-.16.192-.234.069-.083.133-.16.192-.234a.614.614 0 01.217-.148 4.96 4.96 0 00.256-.049.846.846 0 01.27-.033.393.393 0 01.169.034l.138.09c.047.03.097.064.153.103l.095.103c.036.058.076.12.121.188.046.048.091.107.136.174a.53.53 0 01.023.17l-.017.51a2.077 2.077 0 01-.515.59l-.102.096a1.03 1.03 0 01-.292.274.732.732 0 00-.176.164l-.175.163a.663.663 0 00-.103.124.585.585 0 01-.116.082.496.496 0 00-.146.136.953.953 0 00-.118.138.947.947 0 00-.118.137l-.131.123a3.669 3.669 0 01-.382.412 3.97 3.97 0 00-.381.412.961.961 0 00-.235.247c-.069.082-.142.17-.221.261a2.732 2.732 0 01-.235.247 1.45 1.45 0 00-.221.262 1.395 1.395 0 00-.251.317 3.207 3.207 0 01-.236.303l-.089.11a.813.813 0 00-.162.207 2.26 2.26 0 00-.149.222l-.09.138a.89.89 0 00-.117.138.306.306 0 00-.075.125c-.02.037-.008.08.038.128l.167.09c.028.011.068.064.122.16.063.087.108.155.134.203.028.03.06.054.097.074l.111.06c.102.05.199.125.29.222.082.088.169.161.261.221.047.03.092.07.138.118a.88.88 0 00.138.118l.068.073a.22.22 0 01.083.059c.027.03.041.053.04.072a.294.294 0 00.079.173l.137.146a.89.89 0 01.346.223l.273.292c.028.03.061.017.101-.039l.014-.013a.44.44 0 01-.023-.143.328.328 0 00.075-.124.28.28 0 01.089-.139 1.13 1.13 0 00.219-.205l.15-.25a10.14 10.14 0 00.862-1.655 2.68 2.68 0 01.226-.43 2.11 2.11 0 01.282-.402l.044-.04.236-.276a3.11 3.11 0 01.249-.26 4.77 4.77 0 00.295-.359c.099-.128.202-.252.31-.371a2.25 2.25 0 01.148-.222 3.09 3.09 0 00.122-.25c.081-.168.175-.301.282-.401.087-.064.178-.112.274-.147a1.29 1.29 0 01.286-.104c.237-.039.447.039.629.234.073.078.136.164.19.26.063.088.131.17.204.248.018.02.026.048.025.086l.025.114.08.144c.026.048.029.1.009.156l-.04.338a.692.692 0 01-.109.294l-.089.138a.442.442 0 01-.089.11 5.575 5.575 0 00-.454.48c-.138.166-.28.335-.428.51a6.84 6.84 0 00-.338.399 3.117 3.117 0 01-.338.37 1.72 1.72 0 00-.326.443c-.079.11-.163.225-.252.345-.089.12-.183.235-.281.344a3.808 3.808 0 00-.207.276l-.206.248-.208.276a.274.274 0 01-.074.097 1.98 1.98 0 01-.163.235 1.98 1.98 0 00-.163.235c-.06.074-.114.152-.164.235a5.23 5.23 0 01-.135.236.302.302 0 00-.062.168.302.302 0 00.009.156.183.183 0 00.082.088c.046.03.077.073.094.13.101.088.197.181.288.279.101.088.192.185.273.292.093.06.171.133.234.22.073.078.141.16.204.247a.78.78 0 00.288.279c.147.099.26.24.339.421.035.077.072.116.11.117.046.011.078.045.095.102l.082.088c.063.087.134.094.212.021l.029-.027a.479.479 0 01.273-.118.228.228 0 00.216-.12l.368-.427c.049-.064.103-.124.162-.179.049-.064.103-.124.161-.178.01-.028.044-.05.101-.068.076-.016.125-.052.146-.108a.237.237 0 01.032-.112.258.258 0 00.046-.126.305.305 0 01.165-.263c.096-.054.154-.118.176-.192a.765.765 0 01.221-.262.341.341 0 00.132-.151.539.539 0 01.119-.166c.019-.018.039-.027.057-.026.01-.01.015-.023.016-.042a.192.192 0 00.045-.07.144.144 0 01.03-.055.467.467 0 01.162-.207l.073-.068a.248.248 0 01.103-.096.437.437 0 01.143-.052.443.443 0 01.158-.065.813.813 0 00.158-.066c.019-.018.038-.027.057-.026a1.04 1.04 0 00.271-.062c.105-.044.181-.05.227-.02a.76.76 0 01.193.147c.046.049.101.098.165.147a.37.37 0 01.067.101c.028.03.05.063.068.102.017.057.033.124.05.2a.525.525 0 01.035.213l-.004.113a.306.306 0 01.011.1.877.877 0 01-.036.225.418.418 0 01-.119.194.275.275 0 00-.074.096.358.358 0 01-.09.139l-.131.123-.177.22a1.928 1.928 0 01-.204.163.248.248 0 00-.102.096.814.814 0 01-.279.288c-.097.091-.19.187-.278.288l-.263.246-.19.177a.22.22 0 00-.059.083.443.443 0 01-.119.166 1.027 1.027 0 01-.16.122l-.146.137-.043.04a.086.086 0 01-.059.056.376.376 0 00-.101.067.752.752 0 01-.046.097l-.058.055c-.001.019-.011.037-.03.056a1.804 1.804 0 00-.278.26c-.069.1-.144.207-.223.317zM122 80.485a.439.439 0 01-.329.116 30.058 30.058 0 01-.14-.033l-.141-.032a2.216 2.216 0 01-.733-.52l-.371-.31a8.137 8.137 0 01-.456-.34 2.474 2.474 0 00-.471-.299l-.32-.166a.175.175 0 00-.069-.045.18.18 0 00-.069-.045l-.944-.569a.755.755 0 01-.097-.046.137.137 0 00-.098-.045 1.818 1.818 0 01-.237-.107 2.088 2.088 0 00-.235-.164 3.98 3.98 0 00-.152-.104 1.085 1.085 0 00-.181-.105c-.074-.04-.125-.056-.154-.047-.037-.002-.081.04-.131.123-.04.055-.084.115-.133.179a.523.523 0 00-.119.166 2.44 2.44 0 01-.119.166 1.018 1.018 0 00-.132.15l-.164.236c-.039.055-.079.12-.119.194a1.03 1.03 0 01-.133.151l-.222.29c-.059.093-.124.19-.193.29-.07.102-.134.2-.194.291-.179.278-.372.54-.578.788-.06.092-.072.167-.036.225-.009.01-.01.019-.001.028.088.21.165.43.233.659a24.158 24.158 0 01.255.83.969.969 0 01.052.142.974.974 0 00.039.1l.026.087a.499.499 0 00.145.33.85.85 0 01.105.23l.049.228c.018.038.012.07-.017.098a.786.786 0 00-.076.153 2.733 2.733 0 01-.077.182.183.183 0 01-.088.082.775.775 0 00-.1.039c-.038-.002-.066.007-.086.025-.116.09-.253.1-.411.029a2.429 2.429 0 01-.598-.317.254.254 0 01-.096-.102.46.46 0 00-.038-.129c.022-.094.015-.17-.02-.227l-.014-.015a1.132 1.132 0 01-.255-.419 4.457 4.457 0 00-.168-.472 1.803 1.803 0 01-.091-.244l-.077-.257a1.354 1.354 0 00-.09-.272 2.15 2.15 0 00-.118-.273.388.388 0 00-.205-.219.69.69 0 01-.179-.133 1.44 1.44 0 01-.15-.189.52.52 0 01-.142-.387.918.918 0 01.007-.226c.012-.084.02-.164.022-.24.006-.17-.035-.35-.123-.541a3.72 3.72 0 00-.268-.462 36.104 36.104 0 01-.281-.476 41.856 41.856 0 01-.283-.42 29.04 29.04 0 01-.254-.447 4.038 4.038 0 01-.094-.16 1.36 1.36 0 00-.079-.171 5.985 5.985 0 01-.117-.302 1.432 1.432 0 00-.161-.288c-.017-.057-.049-.091-.095-.102a.394.394 0 01-.123-.132.768.768 0 00-.066-.157 1.086 1.086 0 00-.133-.26 2.482 2.482 0 01-.118-.272c-.07-.172-.126-.311-.17-.416a2.795 2.795 0 00-.171-.388 4.087 4.087 0 01-.092-.215.861.861 0 00-.105-.23 3.805 3.805 0 00-.173-.332 1.962 1.962 0 00-.231-.304.793.793 0 01-.092-.216 1.318 1.318 0 01-.057-.412 6 6 0 00.028-.41.633.633 0 01.091-.194.217.217 0 01.16-.122.367.367 0 00.101-.04.38.38 0 01.273-.146.87.87 0 01.31.039.248.248 0 01.112.032c.037.02.07.035.098.045a.6.6 0 01.292.166.917.917 0 00.137.117c.046.03.097.065.152.105.084.03.155.019.214-.036 0-.019.01-.028.029-.027.019 0 .033.006.042.015a.27.27 0 01.221.15.887.887 0 00.204.247c.084.05.171.104.264.164a682.945 682.945 0 01.78.366l.447.184c.149.062.293.128.432.199l.528.272c.186.082.377.159.573.231l.194.12.138.09c.056.02.107.045.154.075a.506.506 0 01.125.047c.047.01.089.017.127.018.112.023.21.069.293.137.12.07.246.117.377.14a.135.135 0 00.129-.038c.127-.156.26-.307.397-.454.128-.156.246-.322.356-.497.08-.13.168-.24.266-.33.185-.174.414-.27.688-.29a.988.988 0 01.812.282.511.511 0 00.124.104c.063.068.094.14.092.215a.322.322 0 01.023.142l.024.143a.439.439 0 01.023.142l-.019.155a.919.919 0 01.024.114.237.237 0 01-.032.112.786.786 0 00-.075.153.777.777 0 01-.118.138 2.018 2.018 0 01-.481.422l-.234.219a.32.32 0 00-.06.111c-.021.056-.018.099.01.128l.054.058c.112.06.218.135.318.223.102.07.208.125.32.166a.36.36 0 00.139.09c.13.042.256.098.376.168.111.06.222.13.333.21a.66.66 0 00.138.089c.093.04.186.09.278.15.084.05.167.11.249.179.055.058.12.098.194.12.121.05.232.11.334.18.101.07.202.148.303.237.019 0 .042.015.07.044.018.02.041.035.069.045.149.062.292.147.43.255.129.099.262.193.401.282.074.04.138.09.193.148.074.06.142.123.206.191a.487.487 0 01.106.202l-.002.085c-.05.064-.052.13-.007.197l.038.129a.178.178 0 01-.019.155.192.192 0 00-.061.14.3.3 0 01-.106.208l-.146.137a1.024 1.024 0 00-.133.151zm-8.479-2.009l.147-.193.192-.234c.04-.055.094-.124.163-.207.069-.082.132-.16.191-.234a.998.998 0 01.178-.22l.177-.221a.74.74 0 01.148-.193l.148-.193c.069-.102.058-.182-.035-.242a1.392 1.392 0 00-.277-.18.537.537 0 00-.336-.095c-.038-.001-.075-.021-.111-.06l-.041-.044a2.019 2.019 0 00-.278-.151 2.01 2.01 0 00-.278-.15 1.387 1.387 0 00-.265-.137 2.307 2.307 0 00-.264-.136l-.667-.362-.279-.122-.25-.15-.098-.018-.044.041.012.072c.088.191.166.392.234.602.079.2.171.406.277.617.018.02.036.049.054.087l.052.115c.053.134.114.277.184.43.08.145.165.284.255.42l.162.231a2.4 2.4 0 01.134.231l.401.693c0 .018.018.028.056.03a.155.155 0 00.058-.027zm12.809-2.7l-.289.189-.449.31a6.53 6.53 0 00-.435.326 1.12 1.12 0 01-.518.265.747.747 0 01-.564-.075 1.125 1.125 0 00-.18-.105l-.166-.119c-.109-.117-.167-.227-.173-.331a1.076 1.076 0 00-.02-.255 2.49 2.49 0 01-.006-.241.317.317 0 01.017-.099l.032-.083a.61.61 0 01.091-.196c.03-.064.065-.125.105-.18.01-.028.025-.042.044-.04.019-.02.034-.033.044-.042.057-.036.12-.076.188-.121a.581.581 0 01.188-.121l.695-.486a.78.78 0 00.31-.4c.021-.056.037-.108.048-.154a5.2 5.2 0 00.234-1.068c.016-.216.028-.428.035-.636a3.444 3.444 0 00-.036-.623.924.924 0 00-.114-.386 1.35 1.35 0 00-.259-.306l-.153-.076a.303.303 0 00-.168-.062 1.321 1.321 0 01-.183-.02 3.619 3.619 0 01-.326.003 1.03 1.03 0 00-.297.004c-.255.02-.506.045-.752.074-.237.02-.478.046-.725.075-.027-.01-.075-.002-.142.024a6.04 6.04 0 01-.44.056 6.56 6.56 0 00-.439 0 4.096 4.096 0 00-.581.023.615.615 0 01-.297.004.95.95 0 00-.312.018c-.105.024-.209.04-.313.046a3.556 3.556 0 00-.325.003l-.354.002a1.152 1.152 0 00-.255-.008 2.455 2.455 0 00-.268-.023.364.364 0 00-.197-.035 1.322 1.322 0 01-.183-.02.317.317 0 00-.098-.018.503.503 0 01-.126-.046 8.589 8.589 0 00-.518-.173 5.597 5.597 0 01-.502-.215c-.102-.05-.2-.096-.293-.137a9.286 9.286 0 00-.263-.165.866.866 0 00-.25-.15l-.25-.15a3.706 3.706 0 00-.36-.237 19.035 19.035 0 00-.345-.252l-.139-.09a2.235 2.235 0 01-.286-.307 2.426 2.426 0 01-.254-.447.773.773 0 01-.07-.455l.073-.507a2.04 2.04 0 01.129-.477c.02-.018.03-.037.031-.055.024-.17.081-.323.171-.462a6.56 6.56 0 01.254-.43c.34-.573.727-1.126 1.159-1.66l.146-.136c.098-.09.19-.177.278-.26a3.92 3.92 0 00.264-.274c.117-.109.247-.204.391-.284.135-.09.279-.16.432-.212a3.78 3.78 0 01.356-.087c.115-.034.229-.058.343-.073a.51.51 0 01.323.053l.14.061c.13.042.241.112.332.21.092.078.174.175.245.29.028.03.055.068.081.116l.082.088a.932.932 0 01.158.783c-.016.198-.121.369-.314.514-.057.017-.068.044-.031.083.036.04.03.082-.019.127l-.087.082c-.059.055-.144.08-.257.076-.095-.003-.155-.019-.183-.048-.036-.04-.044-.087-.023-.142a2.348 2.348 0 00-.182-.077.464.464 0 00-.14-.033.319.319 0 00-.227.02l-.174.108-.173.107-.131.123-.174.108c-.038.017-.077.063-.118.137l-.06.112a.585.585 0 01-.116.08l-.102.096a.328.328 0 00-.075.125l-.236.304a1.856 1.856 0 00-.289.598l-.06.112a.191.191 0 01-.088.082.214.214 0 00-.105.18c.008.029-.002.066-.032.112a.136.136 0 00-.046.098c-.002.075.015.132.051.171.028.01.06.035.097.074l1.14.604c.204.101.414.179.629.233.216.036.436.067.662.093.347.04.673.046.975.018l.837-.043c.179-.003.359-.016.539-.038.18-.022.355-.04.525-.053.246-.03.497-.055.752-.074.247-.03.497-.055.753-.074.208-.012.411-.02.609-.023a3.14 3.14 0 01.595-.008l.423.042c.141.014.281.047.421.1.168.043.345.115.53.215.232.13.42.283.565.457a.28.28 0 00.068.102c.109.117.199.242.27.377.072.115.133.25.185.402.042.143.084.295.126.457.043.143.075.295.098.456.021.218.033.435.035.652a4.92 4.92 0 01-.035.636 4.56 4.56 0 00-.027.38 2.593 2.593 0 01-.069.367 1.84 1.84 0 01-.05.238 22.11 22.11 0 00-.037.254 1.06 1.06 0 00-.049.182l-.034.197a.511.511 0 01-.064.224 1.535 1.535 0 01-.078.21l-.26.572a1.702 1.702 0 01-.486.564zm8.331-7.327a.187.187 0 01-.088.082l-.073.068a.77.77 0 01-.441.084 2.117 2.117 0 01-.45-.1.769.769 0 00-.153-.075.679.679 0 01-.124-.103l-.096-.103a5.154 5.154 0 01-.344-.28l-.301-.321-.382-.41a8.203 8.203 0 00-.368-.422.953.953 0 01-.136-.174 7.93 7.93 0 00-.546-.584 6.844 6.844 0 01-.18-.134 26.304 26.304 0 00-.164-.175 2.387 2.387 0 00-.3-.321 4.93 4.93 0 00-.345-.28l-.276-.208a.175.175 0 00-.069-.045l-.055-.058a4.358 4.358 0 00-1.059-.488 5.155 5.155 0 00-.407-.113l-.419-.155a2.472 2.472 0 01-.39-.183c-.12-.089-.235-.173-.345-.252l-.069-.073a.372.372 0 00-.067-.101l-.164-.176a1.942 1.942 0 00-.177-.218.295.295 0 00-.208-.106l-.197-.035a1.83 1.83 0 01-.239-.05 1.23 1.23 0 00-.253-.065l-.365-.069a2.815 2.815 0 00-.296-.052 4.404 4.404 0 01-.323-.053l-.114-.004a.19.19 0 00-.127.01.18.18 0 01-.156.009 1.202 1.202 0 01-.225-.036 6.78 6.78 0 00-.464-.114c-.158-.053-.312-.1-.462-.143l-.098-.018-.782-.309a30.39 30.39 0 01-.752-.364 1.763 1.763 0 01-.361-.21 1.633 1.633 0 00-.208-.135 1.097 1.097 0 00-.223-.092.62.62 0 01-.195-.092l-.137-.146a.37.37 0 01-.067-.1.536.536 0 00-.038-.13 1.895 1.895 0 01-.036-.213 2.479 2.479 0 01-.006-.24.307.307 0 01.092-.224c.03-.027.045-.05.045-.07a.453.453 0 01.206-.247c.106-.063.207-.111.302-.146a.194.194 0 01.128-.01l.113.004.407.113a.13.13 0 01.097.046l.112.06c.028.01.06.025.097.046.205.082.405.169.6.26.196.073.391.155.586.246l.501.243c.168.062.341.12.518.173.158.071.321.129.49.172l.505.13a.88.88 0 01.225.036c.075.021.154.038.239.05l.155.02c.151.005.236-.002.255-.02.02-.019.022-.103.009-.255a1.778 1.778 0 00-.035-.241 1.329 1.329 0 01-.02-.256 30.52 30.52 0 00-.04-.482 6.966 6.966 0 00-.027-.468 3.598 3.598 0 01.054-.762c.013-.123.017-.245.012-.368a.838.838 0 01.056-.408 4.3 4.3 0 00.081-.295c.012-.103.03-.202.052-.295.004-.113.021-.221.053-.324a1.464 1.464 0 00.013-.396.665.665 0 01.01-.282l.081-.323a.16.16 0 01.03-.056l.002-.056.044-.041c.001-.02.006-.033.016-.042a1.4 1.4 0 01.09-.167c.04-.055.084-.106.132-.151l.258-.077a.586.586 0 01.255-.02.142.142 0 00.057-.026c.02-.018.039-.027.058-.026.019 0 .033.006.042.015.009.01.022.034.04.072a.148.148 0 00.026.058c.009.01.024.005.043-.013.02-.018.039-.027.058-.026.018 0 .033-.004.042-.013.01-.009.024-.004.042.016a.78.78 0 00.262.22.213.213 0 01.111.061c.027.03.05.063.067.101l.139.528c.026.049.029.1.009.156a2.636 2.636 0 01-.165.702 1.829 1.829 0 00-.22.644l-.037.253c-.021.075-.033.16-.036.254a.515.515 0 01-.033.14l-.02.155.007.651.008.623c.016.057.01.1-.019.127a.676.676 0 00-.022.24c.024.123.044.251.058.384a.915.915 0 00.101.371l.049.228a.209.209 0 00.012.071.232.232 0 00.011.071.34.34 0 00.191.233.253.253 0 01.112.032.507.507 0 01.126.047c.074.021.115.074.122.16-.011.028.002.06.039.1.056.02.093.04.111.06.074.04.119.099.136.175.017.057.03.09.039.1.045.067.1.116.165.147.056.02.121.051.195.091.075.022.154.038.239.05.139.052.275.1.405.142.131.042.261.093.391.154l.708.406c.102.069.203.148.304.236l.275.236.193.148c.056.04.106.093.151.16.219.196.425.406.615.63l.588.627c.018.02.031.044.04.072.09.116.19.233.3.35.109.117.209.233.299.35l.192.204c.073.059.146.127.219.205.027.03.05.044.069.045.065.03.13.07.194.12l.166.118a.6.6 0 01.111.09.36.36 0 01.08.143.388.388 0 00.205.22c.009.01.008.037-.003.084a.169.169 0 00-.045.07c-.01.008-.015.032-.016.07.018.02.027.038.026.057.036.058.051.153.047.285a.547.547 0 01-.051.267 1.857 1.857 0 01-.107.237zm19.984-17.296a.23.23 0 01-.122.088l-.101.072a.967.967 0 01-.561.033 2.645 2.645 0 01-.541-.196.958.958 0 00-.177-.119.807.807 0 01-.137-.148l-.102-.142a6.388 6.388 0 01-.382-.403c-.106-.15-.213-.298-.32-.447l-.408-.57a9.615 9.615 0 00-.388-.583 1.22 1.22 0 01-.14-.238 10.119 10.119 0 00-.582-.812 9.434 9.434 0 01-.201-.195 36.955 36.955 0 01-.175-.244 2.97 2.97 0 00-.321-.447 6.095 6.095 0 00-.381-.403l-.309-.301a.216.216 0 00-.078-.067l-.058-.081a5.454 5.454 0 00-1.234-.777 6.412 6.412 0 00-.486-.205l-.494-.261a3.083 3.083 0 01-.454-.29 26.02 26.02 0 00-.388-.368 17.31 17.31 0 00-.072-.102.486.486 0 00-.067-.136l-.175-.244a2.538 2.538 0 00-.184-.299.37.37 0 00-.241-.165l-.239-.075a2.253 2.253 0 01-.288-.102 1.551 1.551 0 00-.302-.121l-.442-.145a3.545 3.545 0 00-.358-.112 5.415 5.415 0 01-.392-.119l-.14-.023a.241.241 0 00-.16-.008.225.225 0 01-.195-.014 1.529 1.529 0 01-.273-.081 8.541 8.541 0 00-.555-.217c-.189-.09-.372-.175-.55-.252l-.119-.037-.92-.51a41.218 41.218 0 01-.873-.574 2.219 2.219 0 01-.413-.319 1.934 1.934 0 00-.236-.2 1.369 1.369 0 00-.261-.15.774.774 0 01-.227-.146 25.685 25.685 0 01-.146-.203.46.46 0 01-.067-.136.612.612 0 00-.027-.166 2.552 2.552 0 01-.009-.27 2.68 2.68 0 01.032-.3.382.382 0 01.15-.261c.041-.03.063-.056.067-.079a.562.562 0 01.296-.274c.141-.06.274-.104.398-.131a.242.242 0 01.16.008l.139.023.486.206a.17.17 0 01.113.072l.128.093c.033.017.071.042.114.072.24.136.474.276.701.42.231.122.46.255.687.4l.581.383c.198.104.403.203.614.298.185.114.377.212.579.293.202.08.403.162.605.243.093.015.184.042.273.08.09.039.186.073.288.102l.189.049c.186.03.293.036.32.016.027-.019.044-.124.052-.313a2.367 2.367 0 00-.004-.306 1.68 1.68 0 01.017-.32c.011-.212.021-.414.028-.604.021-.2.035-.394.043-.584.022-.283.086-.595.19-.936.036-.15.061-.3.074-.454.008-.19.053-.355.136-.497.056-.122.105-.24.148-.352.032-.126.07-.245.112-.358.023-.14.063-.27.119-.392a1.716 1.716 0 00.08-.489.905.905 0 01.058-.349l.153-.386a.194.194 0 01.046-.064l.012-.07.061-.044c.004-.023.012-.04.026-.05a1.8 1.8 0 01.139-.191c.058-.062.121-.118.189-.166l.331-.053a.738.738 0 01.32.017.19.19 0 00.075-.024c.027-.02.052-.027.076-.023.023.004.039.012.049.026.01.014.022.046.038.096a.208.208 0 00.023.075c.01.014.028.01.056-.008.027-.02.052-.028.075-.024s.042.001.055-.009c.014-.01.03 0 .05.026.064.118.16.224.288.317a.269.269 0 01.128.092.46.46 0 01.067.137l.086.677a.227.227 0 01-.014.195 3.239 3.239 0 01-.319.843c-.185.256-.311.51-.376.762l-.087.308c-.038.09-.067.192-.086.309a.588.588 0 01-.064.168l-.049.19-.097.807-.092.774c.012.073-.002.125-.043.154a.823.823 0 00-.066.293c.01.157.013.319.009.486-.013.153.009.312.065.476l.024.29a.282.282 0 00.003.09.282.282 0 00.003.09c.014.134.08.24.198.32a.314.314 0 01.134.058.62.62 0 01.148.078c.09.039.131.111.126.218-.018.033-.007.076.032.13a.377.377 0 01.128.093.318.318 0 01.14.238.44.44 0 00.032.131c.045.091.105.16.181.21.066.034.141.082.227.144.089.039.185.072.288.101.164.087.324.167.479.24.156.074.309.159.46.255l.812.618c.115.102.227.217.338.342l.303.337.215.214a.749.749 0 01.16.224c.241.279.462.572.662.88l.626.873c.02.027.032.059.038.096.093.158.198.319.315.482.116.162.221.323.315.481l.204.285c.081.085.161.182.239.29.029.04.055.063.078.067.076.048.149.108.221.18l.187.174a.74.74 0 01.122.127.444.444 0 01.076.192c.027.124.1.225.218.305.01.013.004.048-.017.104a.231.231 0 00-.067.079c-.013.01-.024.038-.031.084.019.027.027.052.023.076.035.077.039.197.012.36a.682.682 0 01-.107.323 2.251 2.251 0 01-.171.276zm6.931-6.785a.515.515 0 01-.177.096.67.67 0 00-.232.105.937.937 0 01-.168.152l-.041.029c-.004.023-.012.04-.026.05a2.452 2.452 0 01-.27.224.94.94 0 01-.273.134c-.023-.004-.041-.001-.055.009a.336.336 0 01-.302.093 3.057 3.057 0 00-.334-.037.38.38 0 01-.262-.15l-.178-.12a.584.584 0 01-.23-.234.106.106 0 00-.058-.082l-.058-.08a.228.228 0 01-.079-.068.277.277 0 00-.093-.087 4.324 4.324 0 01-.323-.322 4.364 4.364 0 01-.257-.4 2.66 2.66 0 01-.149-.508 11.598 11.598 0 00-.12-.468.43.43 0 00-.055-.206 5.95 5.95 0 01-.341-.433 6.86 6.86 0 00-.315-.482.447.447 0 01-.099-.267.422.422 0 00-.199-.32l-.221-.179c-.188-.09-.273-.224-.256-.4a8.049 8.049 0 01-.015-.02c.004-.024.001-.042-.009-.056.008-.047-.009-.085-.052-.116a.684.684 0 01-.108-.108.802.802 0 01-.096-.177.364.364 0 00-.111-.197l-.07-.012a.53.53 0 01-.137-.148 1.703 1.703 0 00-.081-.156l-.408-.57a1.142 1.142 0 00-.111-.197 1.308 1.308 0 01-.125-.217.91.91 0 00-.175-.244l-.204-.285a9.434 9.434 0 01-.201-.194l-.175-.244a.276.276 0 01-.093-.087l-.073-.101-.186-.174-.146-.203c-.019-.028-.109-.096-.27-.206-.171-.124-.289-.245-.353-.363a.28.28 0 00-.052-.116.17.17 0 00-.114-.072c-.037.005-.07-.012-.099-.053l-.043-.06a.847.847 0 00-.411-.444.411.411 0 01-.236-.2.324.324 0 00-.317-.142 1.408 1.408 0 01-.357-.113.984.984 0 01-.306-.212 1.305 1.305 0 01-.166-.188l-.131-.183c-.039-.054-.056-.093-.053-.116a.31.31 0 00-.049-.241.722.722 0 01-.111-.198c.004-.023.012-.04.026-.05.013-.009.022-.025.026-.049.044-.052.037-.119-.021-.2a.398.398 0 01-.142-.113c-.053-.045-.067-.107-.041-.186-.012-.074.012-.112.072-.114.124-.027.223-.118.296-.273a.466.466 0 01.072-.114l.061-.044c.004-.023.04-.059.108-.107.091-.045.146-.125.165-.242a.58.58 0 01.243-.39l1.26-.903c.321-.21.633-.433.934-.67.302-.237.602-.462.9-.676l.163-.117.133-.157a.767.767 0 01.241-.265l.467-.335.284-.204.256-.244a.738.738 0 01.127-.122l.163-.117.162-.117a.783.783 0 00.148-.137 3.47 3.47 0 01.331-.267c.112-.101.223-.19.331-.268l.142-.102.134-.158c.089-.104.18-.19.275-.259.099-.091.191-.177.276-.259.098-.091.19-.178.275-.26.099-.09.191-.177.276-.258a.778.778 0 01.293-.149c.12-.004.229-.01.326-.018a1.05 1.05 0 01.34.002.486.486 0 01.203.07l.158.133c.052.044.109.096.171.154l.102.142c.035.077.075.162.12.253.048.067.095.147.14.238a.646.646 0 010 .215l-.103.628a2.749 2.749 0 01-.348.372 2.258 2.258 0 01-.386.277l-.143.102a1.256 1.256 0 01-.406.291.914.914 0 00-.244.175l-.243.175a.783.783 0 00-.148.137.745.745 0 01-.157.082.624.624 0 00-.203.145c-.055.04-.111.09-.169.152a1.17 1.17 0 00-.168.151l-.183.131a4.557 4.557 0 01-.539.449c-.19.136-.37.285-.54.448a1.193 1.193 0 00-.331.268c-.099.091-.204.188-.316.289-.099.09-.209.18-.331.268a1.744 1.744 0 00-.316.288 1.712 1.712 0 00-.363.352 4.068 4.068 0 01-.342.338l-.128.122a1.023 1.023 0 00-.235.23 3.005 3.005 0 00-.22.25l-.134.158a1.24 1.24 0 00-.168.151.401.401 0 00-.113.143c-.031.043-.022.098.026.165l.193.14c.032.017.074.09.125.217a2.7 2.7 0 01.134.273c.029.04.065.077.108.108l.128.092c.118.08.226.187.323.322.087.122.184.228.288.317.053.044.103.1.152.168.039.054.089.11.151.168l.073.102a.277.277 0 01.093.087c.029.04.042.072.038.096a.368.368 0 00.07.226l.146.203c.165.087.296.198.393.334l.291.406c.029.04.073.03.131-.032l.02-.015a.629.629 0 01-.006-.18.39.39 0 00.113-.142.354.354 0 01.134-.158c.118-.064.219-.137.304-.218l.227-.285c.52-.62.965-1.257 1.336-1.912a3.3 3.3 0 01.351-.498 2.55 2.55 0 01.414-.451l.061-.044.337-.303c.112-.1.229-.195.351-.282.153-.13.294-.262.423-.396a7.91 7.91 0 01.444-.41 2.99 2.99 0 01.221-.251c.062-.085.125-.183.191-.291.128-.194.266-.345.415-.451a1.38 1.38 0 01.363-.138c.114-.04.238-.068.372-.082.3-.01.547.12.741.391.078.109.142.227.193.355.064.117.135.23.213.34.019.026.025.063.017.11l.012.145.076.192a.224.224 0 01-.014.194c-.033.126-.067.264-.104.413a.868.868 0 01-.182.346l-.134.157a.554.554 0 01-.127.123 7.013 7.013 0 00-.642.521c-.197.183-.401.37-.612.562a8.35 8.35 0 00-.484.44 3.796 3.796 0 01-.479.405 2.159 2.159 0 00-.476.495c-.116.124-.239.253-.368.387a6.42 6.42 0 01-.403.381c-.099.092-.2.194-.302.309l-.296.274-.302.308a.344.344 0 01-.107.108 2.586 2.586 0 01-.241.265c-.085.081-.165.17-.241.265-.085.081-.165.17-.24.265a8.618 8.618 0 01-.206.27.376.376 0 00-.104.198.367.367 0 00-.014.195c.015.05.044.09.087.122a.285.285 0 01.096.177c.111.126.215.256.312.392.111.125.208.26.291.406.105.089.189.193.254.31.077.109.148.222.212.34a.98.98 0 00.312.392c.167.147.285.34.353.578.031.1.07.155.116.162.057.021.091.069.102.142l.088.122c.064.118.15.139.259.06l.04-.028a.6.6 0 01.357-.103.286.286 0 00.288-.114l.525-.468c.072-.072.148-.137.229-.196.072-.071.148-.137.23-.195.017-.033.062-.055.136-.067.097-.008.163-.045.197-.11a.317.317 0 01.058-.134.306.306 0 00.078-.149.382.382 0 01.247-.3c.128-.05.211-.12.249-.21a.966.966 0 01.317-.288.431.431 0 00.188-.166.691.691 0 01.174-.186c.027-.02.053-.027.076-.023.013-.01.022-.026.026-.05a.231.231 0 00.067-.078.182.182 0 01.046-.064.58.58 0 01.235-.23l.102-.073a.305.305 0 01.142-.102.556.556 0 01.186-.041.552.552 0 01.206-.056.973.973 0 00.206-.055c.027-.02.052-.028.076-.024.106.006.222-.005.345-.032.138-.038.233-.034.285.01a.948.948 0 01.216.215c.048.068.109.138.18.21.029.04.052.085.067.136.03.04.052.086.068.136.011.074.021.159.029.256a.645.645 0 01.009.27 6.763 6.763 0 01-.023.14.406.406 0 01-.002.125 1.225 1.225 0 01-.081.273.53.53 0 01-.18.221.343.343 0 00-.107.108.45.45 0 01-.134.157l-.183.131-.255.245a2.26 2.26 0 01-.279.169.316.316 0 00-.142.102 1.016 1.016 0 01-.392.311 4.967 4.967 0 00-.391.312l-.366.263-.264.189a.271.271 0 00-.087.093.562.562 0 01-.174.186 1.26 1.26 0 01-.218.126l-.203.145-.061.044a.105.105 0 01-.081.058.47.47 0 00-.137.067.903.903 0 01-.072.114l-.081.058c-.004.024-.02.045-.047.064a2.264 2.264 0 00-.386.277c-.102.114-.212.234-.328.358zm18.512-13.49l-8.106 5.813-10.402-14.506 8.106-5.812 1.151 1.605-6.278 4.501 3.249 4.53 5.912-4.239 1.136 1.585-5.912 4.24 3.715 5.18 6.278-4.501 1.151 1.605zm11.289-8.095l-8.106 5.813-10.402-14.506 8.106-5.813 1.151 1.605-6.278 4.502 3.249 4.53 5.912-4.239 1.136 1.585-5.912 4.24 3.715 5.18 6.278-4.502 1.151 1.605zm6.416-3.093l-.389.187c-.196.099-.398.203-.607.312a8.26 8.26 0 00-.592.332 1.4 1.4 0 01-.686.246.932.932 0 01-.686-.185 1.405 1.405 0 00-.207-.16l-.186-.174c-.116-.162-.17-.308-.16-.438.019-.116.024-.223.016-.32.006-.106.016-.206.032-.3a.385.385 0 01.037-.119l.052-.098a.795.795 0 01.145-.227c.049-.076.102-.145.16-.207.017-.033.037-.048.061-.044l.061-.043c.077-.035.161-.075.252-.12a.743.743 0 01.253-.12l.941-.49a.978.978 0 00.449-.445c.035-.066.063-.127.084-.183.035-.066.063-.127.084-.184.172-.39.298-.757.379-1.102.056-.265.104-.526.147-.782.042-.256.061-.515.056-.779a1.138 1.138 0 00-.079-.496 1.67 1.67 0 00-.271-.421l-.178-.12a.38.38 0 00-.197-.104 1.615 1.615 0 01-.224-.054 4.443 4.443 0 01-.404-.049 1.292 1.292 0 00-.37-.043 22.519 22.519 0 00-.944-.03c-.297-.013-.6-.021-.91-.025-.033-.017-.093-.015-.18.007-.18.006-.365.005-.555-.002a8.221 8.221 0 00-.544-.072 5.114 5.114 0 00-.723-.065.77.77 0 01-.37-.043 1.184 1.184 0 00-.389-.029 2.244 2.244 0 01-.395.007 4.528 4.528 0 00-.404-.049l-.439-.054a1.448 1.448 0 00-.314-.052 3.086 3.086 0 00-.329-.072.453.453 0 00-.238-.075 1.615 1.615 0 01-.224-.055.396.396 0 00-.119-.038.627.627 0 01-.149-.078 10.82 10.82 0 00-.613-.298 7.044 7.044 0 01-.588-.348 8.318 8.318 0 00-.341-.217 10.66 10.66 0 00-.299-.246 1.09 1.09 0 00-.286-.226l-.285-.227a4.98 4.98 0 00-.407-.354 29.418 29.418 0 00-.388-.368l-.157-.133a2.816 2.816 0 01-.306-.427 3.137 3.137 0 01-.242-.595.977.977 0 01-.013-.576l.174-.616a2.43 2.43 0 01.237-.57c.027-.02.042-.04.046-.064a1.43 1.43 0 01.287-.544c.124-.17.252-.335.386-.492a17.118 17.118 0 011.705-1.869l.203-.146.386-.276a4.82 4.82 0 00.372-.297c.162-.117.339-.213.531-.29.182-.089.372-.153.569-.192.147-.024.299-.04.456-.05.147-.024.293-.036.436-.036a.64.64 0 01.393.118l.163.099a.963.963 0 01.378.313c.101.112.186.246.256.4.03.041.057.094.082.157l.088.122c.173.327.195.66.068.997-.052.242-.209.437-.472.585-.074.012-.091.045-.053.099.039.054.025.106-.043.154l-.122.088c-.081.058-.191.075-.331.052-.116-.019-.189-.049-.218-.09-.039-.053-.041-.113-.006-.18a3.047 3.047 0 00-.213-.124.585.585 0 00-.168-.064.4.4 0 00-.285-.01l-.232.104-.233.105-.183.132-.232.105c-.05.015-.106.066-.168.151l-.093.128a.743.743 0 01-.157.082l-.142.102a.401.401 0 00-.113.142l-.342.338c-.188.196-.34.428-.455.695l-.093.129a.233.233 0 01-.122.087.27.27 0 00-.159.207c.006.036-.014.081-.058.133a.17.17 0 00-.073.114c-.015.093-.003.166.036.22a.349.349 0 01.107.108l1.316.933c.236.159.484.29.741.391.262.08.531.153.806.223.424.105.827.166 1.206.18l1.044.083c.223.025.447.038.674.04.227 0 .447.007.66.018.31.004.625.014.944.03.31.004.625.014.945.03.26.02.512.043.759.072.25.005.496.034.738.086l.517.121c.173.04.342.104.506.19.202.082.41.2.623.354.266.2.475.419.626.659a.348.348 0 00.067.136c.117.163.208.333.274.511.07.155.125.331.164.529.029.184.057.38.083.587.029.184.045.377.047.58-.009.274-.03.545-.062.815a6.218 6.218 0 01-.147.782c-.037.15-.068.305-.095.468a3.13 3.13 0 01-.145.442 2.228 2.228 0 01-.101.288l-.086.308a1.292 1.292 0 00-.09.218l-.075.239a.635.635 0 01-.116.267c-.039.09-.082.172-.13.248l-.415.666a2.147 2.147 0 01-.693.62zM15.411 192.327a.505.505 0 01-.147.126.635.635 0 00-.198.144.892.892 0 01-.128.175l-.033.036c.002.022-.003.04-.014.051a2.27 2.27 0 01-.21.264.899.899 0 01-.23.18c-.022.001-.04.007-.05.019a.321.321 0 01-.265.147 3.17 3.17 0 00-.322.031.366.366 0 01-.275-.09l-.19-.077a.55.55 0 01-.263-.175.103.103 0 00-.07-.065l-.071-.065a.21.21 0 01-.087-.047.265.265 0 00-.105-.064 3.8 3.8 0 01-.367-.239 4.123 4.123 0 01-.32-.325 2.507 2.507 0 01-.24-.449c-.112-.233-.18-.371-.205-.416a.406.406 0 00-.093-.182 6.073 6.073 0 01-.405-.34 6.86 6.86 0 00-.39-.391.426.426 0 01-.146-.231.405.405 0 00-.25-.261l-.242-.126c-.195-.048-.302-.156-.32-.326a.294.294 0 01-.018-.016c0-.022-.007-.039-.02-.05-.001-.045-.025-.078-.071-.099a.67.67 0 01-.123-.079.818.818 0 01-.125-.148.351.351 0 00-.143-.164l-.068.003a.482.482 0 01-.157-.112 2.066 2.066 0 00-.108-.131l-.495-.454a1.096 1.096 0 00-.143-.164 1.21 1.21 0 01-.16-.18.863.863 0 00-.213-.195 50.56 50.56 0 01-.247-.227 7.922 7.922 0 01-.227-.143l-.213-.195a.261.261 0 01-.104-.063l-.089-.081-.209-.127-.177-.162a1.566 1.566 0 00-.295-.14 1.135 1.135 0 01-.402-.272.276.276 0 00-.072-.099.164.164 0 00-.121-.045c-.034.012-.068.002-.103-.03l-.053-.049a.812.812 0 00-.473-.336.392.392 0 01-.261-.142.313.313 0 00-.326-.071 1.371 1.371 0 01-.358-.035.954.954 0 01-.33-.139 1.205 1.205 0 01-.192-.144l-.16-.146c-.046-.044-.07-.077-.072-.099a.298.298 0 00-.094-.217.714.714 0 01-.143-.164c0-.022.004-.04.015-.051a.074.074 0 00.015-.052c.031-.058.012-.119-.06-.184a.397.397 0 01-.155-.078c-.058-.032-.083-.087-.075-.167-.026-.067-.01-.107.045-.121.111-.05.186-.155.225-.315a.423.423 0 01.045-.121l.049-.053c-.001-.023.026-.064.08-.123.076-.06.112-.146.107-.259a.555.555 0 01.152-.414l1.006-1.097c.26-.26.51-.531.747-.813.237-.282.474-.553.712-.812l.13-.142.094-.174a.74.74 0 01.174-.296l.374-.407.227-.247.192-.28a.694.694 0 01.095-.14l.13-.142.13-.141c.043-.047.08-.1.112-.158.075-.105.16-.211.258-.317.086-.117.172-.222.258-.317l.114-.124.094-.173c.063-.116.133-.216.208-.298.075-.105.144-.205.208-.298.075-.105.144-.204.208-.298.075-.105.144-.204.208-.297a.755.755 0 01.247-.198c.112-.027.213-.054.302-.081.1-.038.207-.06.32-.064a.467.467 0 01.205.025l.174.094c.058.032.122.068.191.111l.124.113c.048.066.102.137.162.214.06.054.119.12.179.196a.65.65 0 01.042.202l.027.611c-.073.15-.158.29-.254.418a2.163 2.163 0 01-.309.336l-.113.124a1.217 1.217 0 01-.325.354.862.862 0 00-.194.212l-.195.212a.786.786 0 00-.112.158.748.748 0 01-.131.108.61.61 0 00-.163.176 1.148 1.148 0 00-.128.176 1.09 1.09 0 00-.128.175l-.146.159a4.433 4.433 0 01-.42.528 4.718 4.718 0 00-.418.528c-.11.095-.195.2-.258.316l-.24.334a3.29 3.29 0 01-.259.316 1.732 1.732 0 00-.24.333 1.676 1.676 0 00-.272.403 3.89 3.89 0 01-.255.385l-.096.14a.977.977 0 00-.175.262 2.789 2.789 0 00-.158.278l-.095.174a1.148 1.148 0 00-.128.176.382.382 0 00-.078.156c-.02.046-.002.096.057.15l.208.093c.034.01.088.07.16.18.084.099.144.175.18.23a.45.45 0 00.123.08l.138.062c.127.051.25.131.367.239.106.097.217.178.333.241a.874.874 0 01.176.128c.047.043.105.086.175.128l.089.081c.034.01.069.031.104.064.036.032.054.06.055.082a.35.35 0 00.11.199l.177.163c.172.049.317.128.435.236l.354.324c.035.033.074.014.116-.056l.016-.017a.559.559 0 01-.04-.169.382.382 0 00.077-.156.342.342 0 01.095-.174c.098-.083.18-.172.243-.265l.157-.312a12.3 12.3 0 00.88-2.06c.06-.183.136-.362.23-.536a2.5 2.5 0 01.302-.506l.048-.053.257-.351c.086-.117.177-.228.274-.334.119-.152.225-.304.32-.456a7.62 7.62 0 01.337-.473c.052-.104.105-.197.158-.278.041-.093.082-.196.122-.311a1.62 1.62 0 01.301-.506c.099-.083.203-.15.314-.2.1-.061.21-.111.334-.15.28-.069.538.005.774.221.094.087.177.185.25.295.084.098.172.191.267.277.023.022.036.055.038.101l.04.134.109.165a.215.215 0 01.025.186c-.006.124-.012.261-.017.408a.831.831 0 01-.103.361l-.094.174a.535.535 0 01-.096.14c-.173.189-.34.394-.5.616l-.465.649a8.206 8.206 0 00-.369.508 3.74 3.74 0 01-.37.475 2.06 2.06 0 00-.35.558c-.084.14-.174.285-.27.437a5.917 5.917 0 01-.303.437 4.346 4.346 0 00-.223.35l-.225.315-.222.349a.33.33 0 01-.08.123c-.052.104-.11.203-.174.296a2.485 2.485 0 00-.174.296 2.499 2.499 0 00-.174.297c-.041.092-.088.19-.14.294a.367.367 0 00-.06.207.36.36 0 00.025.185c.025.045.06.077.107.098.058.031.1.08.125.147.129.097.252.199.37.307.128.096.246.205.353.325.116.063.216.143.3.242.094.086.183.178.266.277.12.153.244.255.37.307.186.105.334.263.445.473.05.089.097.132.142.13.057.009.098.047.124.113l.106.098c.083.098.168.1.255.006l.032-.036a.576.576 0 01.316-.166.273.273 0 00.248-.164l.4-.543a1.82 1.82 0 01.178-.229 1.74 1.74 0 01.177-.228c.01-.035.048-.065.115-.09.09-.027.144-.074.164-.143a.3.3 0 01.028-.137.307.307 0 00.044-.155.364.364 0 01.173-.33c.11-.073.174-.155.193-.246a.914.914 0 01.24-.333.422.422 0 00.145-.193.641.641 0 01.127-.21c.021-.023.044-.036.066-.037a.07.07 0 00.015-.051.219.219 0 00.047-.087.17.17 0 01.031-.069.557.557 0 01.176-.263l.08-.088a.302.302 0 01.114-.124.548.548 0 01.167-.075.544.544 0 01.183-.093.877.877 0 00.183-.093c.021-.023.043-.036.066-.037.101-.015.207-.048.319-.098.121-.062.211-.077.27-.046a.899.899 0 01.244.16c.059.054.13.107.21.16a.465.465 0 01.09.115.465.465 0 01.09.115c.026.067.052.145.079.235a.636.636 0 01.061.252l.006.136a.37.37 0 01.022.118 1.11 1.11 0 01-.022.272.497.497 0 01-.125.243.336.336 0 00-.08.123.424.424 0 01-.095.174l-.145.159-.192.28a2.22 2.22 0 01-.229.214.297.297 0 00-.113.123.971.971 0 01-.307.37c-.108.118-.21.242-.307.37l-.292.319-.211.229a.275.275 0 00-.063.105.527.527 0 01-.127.209 1.212 1.212 0 01-.18.161l-.163.177-.048.053a.104.104 0 01-.065.071.429.429 0 00-.115.09.938.938 0 01-.046.12l-.065.071c.001.023-.01.046-.03.069-.12.108-.223.22-.31.336a15.27 15.27 0 01-.237.401zm13.451-14.59a2.244 2.244 0 00-.149.092l-.133.073a2.125 2.125 0 01-.4.153.309.309 0 01-.204.009 25.854 25.854 0 00-.565-.094 8.014 8.014 0 00-.564-.095l-.43-.1c-.24-.069-.475-.133-.704-.191a23.65 23.65 0 00-.704-.19.555.555 0 00-.223-.042l-.207-.059a8.972 8.972 0 01-.6-.127 17.054 17.054 0 00-.6-.161l-1.273-.353a56.632 56.632 0 00-1.014-.279l-1.032-.295a.55.55 0 01-.171-.027 2.943 2.943 0 00-.534-.164l-.516-.147a3.246 3.246 0 01-.361-.104 2.428 2.428 0 00-.379-.119l-.532-.13c-.022.023-.044.036-.066.037l.001.034.018.016c.142.152.29.31.445.473.154.163.32.315.495.455a.516.516 0 01.23.21c.19.219.385.386.582.502a.388.388 0 01.142.13c.047.043.094.098.142.163.072.088.143.164.214.229.07.065.142.141.214.229a.468.468 0 01.191.11.819.819 0 01.126.148.903.903 0 00.371.341.119.119 0 01.106.097.94.94 0 00.357.392c.233.149.44.361.622.636a.415.415 0 00.107.131.166.166 0 00.156.078c.067-.025.108-.01.121.046a4.25 4.25 0 00.496.454l-.017.018c-.01.012-.022.012-.034.002-.022.001-.04-.004-.051-.015-.045.002-.05.019-.015.051.059.055.1.081.122.08.081.031.15.073.21.127l.177.162.548.503a.468.468 0 01.09.115c.035.033.048.077.04.134-.032.058-.012.12.058.185.12.13.188.28.206.449.03.158.037.316.021.475a.543.543 0 01-.091.242 1.272 1.272 0 01-.18.161l-.399.221c-.021.023-.06.03-.118.022l-.203.008a.822.822 0 00-.237.011c-.09.026-.193.008-.308-.055a2.41 2.41 0 00-.244-.126.894.894 0 01-.244-.159l-.23-.211a1.888 1.888 0 00-.214-.228 1.097 1.097 0 00-.143-.164 1.206 1.206 0 01-.16-.18l-6.473-5.938-.177-.163a4.136 4.136 0 01-.127-.181 283.72 283.72 0 00-.177-.162 1.212 1.212 0 00-.16-.18l-.212-.195a8.431 8.431 0 01-.162-.214.724.724 0 00-.108-.131l-.124-.114-.548-.502a1.5 1.5 0 01-.196-.213 1.944 1.944 0 00-.164-.248l-.04-.134a.542.542 0 00-.077-.234c-.05-.089-.053-.157-.01-.204a.597.597 0 01.045-.154.235.235 0 00-.041-.169l-.002-.033.033-.036c-.001-.022.004-.04.015-.051.043-.048.064-.094.062-.139a.201.201 0 01.096-.14.78.78 0 00.147-.125.824.824 0 01.148-.126c.285-.216.606-.258.962-.126l.451.218a.8.8 0 00.482.15c.148.005.301.015.46.031.16.016.324.025.494.029.67.051 1.366.168 2.088.352l.206.059.206.059 2.701.784c.195.049.39.108.585.179.195.048.395.091.6.127l.207.059a.526.526 0 01.172.061 5.1 5.1 0 00.62.177l.017.016c.01-.012.01-.023-.002-.034l.017-.018a10.045 10.045 0 01-.002-.034l-.57-.62-.177-.163a1.212 1.212 0 00-.16-.18 8.717 8.717 0 01-.163-.213.292.292 0 00-.123-.114.753.753 0 01-.126-.148l-.212-.194a13.17 13.17 0 01-.197-.247.465.465 0 00-.09-.115l-.124-.113-.477-.438-.017.017-.477-.438-.177-.162a.653.653 0 00-.21-.127.705.705 0 01-.175-.128l-.107-.131a.264.264 0 00-.105-.064l-.106-.097a.268.268 0 00-.158-.112.422.422 0 01-.174-.095.78.78 0 00-.125-.147l-.142-.13c-.047-.043-.092-.041-.135.006-.01.012-.028.007-.052-.015-.046-.021-.075-.048-.088-.081a.704.704 0 00-.162-.214l-.212-.195-.513-.47a.592.592 0 01-.196-.212 1.352 1.352 0 01-.114-.267l-.04-.168a3.953 3.953 0 010-.357l.019-.375.03-.103c.041-.07.078-.133.11-.191a.602.602 0 01.162-.177.34.34 0 01.115-.09c.067-.026.14-.046.218-.061.067-.025.14-.045.218-.06.034-.013.056-.014.068-.003l.068-.003a.31.31 0 01.137.028.37.37 0 01.12.012.378.378 0 01.274.056c.08.031.156.067.225.11l.743.681.248.227c.081.053.169.112.262.176.058.031.11.068.158.112l.124.113.3.276c.105.075.205.156.3.242l.123.114c.083.075.16.157.232.244l.23.211.778.714c.117.108.236.228.355.359.118.108.247.216.387.323a.326.326 0 01.09.115c.107.12.22.234.338.342.106.097.212.206.32.326l.159.146c.059.054.112.114.16.18a.78.78 0 00.126.147.81.81 0 01.157.112c.128.074.24.166.335.275.106.097.207.2.302.31.178.184.361.375.551.57.189.173.394.34.616.5l.16.146c.069.043.133.091.192.145.166.174.343.325.53.453l.592.348.419.254c.127.074.261.164.402.271.047.043.071.076.072.099.013.033.032.072.056.117.013.033.031.06.055.082.083.098.14.215.168.35.039.122.073.251.101.386.06.337-.064.614-.372.831zm9.48-8.841c-.032.058-.076.083-.133.074l-.236.044a1.026 1.026 0 00-.236.044.715.715 0 01-.459.003 1.314 1.314 0 01-.676-.328 1.206 1.206 0 00-.193-.144 1.207 1.207 0 00-.193-.145.874.874 0 00-.176-.128l-.159-.146a26.227 26.227 0 01-.177-.163 1.375 1.375 0 00-.21-.16c-.012-.011-.024-.011-.034.001a.57.57 0 00-.018-.016c-.022.023-.032.047-.031.069l.07.456c.028.112.039.23.033.355-.007.102-.008.21-.003.323a5.05 5.05 0 01-.166.89 3.98 3.98 0 01-.122.311 4.399 4.399 0 01-.893 1.364c-.13.119-.267.243-.408.374-.12.13-.261.249-.427.358l-.398.221a2.563 2.563 0 01-.436.121l-.44.053a3.3 3.3 0 01-.476-.014 9.352 9.352 0 00-.564-.094c-.08-.008-.247-.063-.5-.166l-.24-.057a2.55 2.55 0 00-.38-.12 3.491 3.491 0 01-.363-.171l-.33-.139a7.212 7.212 0 00-.294-.14l-.312-.156a9.416 9.416 0 01-.574-.298 36.492 36.492 0 00-.575-.332l-.367-.239a.211.211 0 00-.086-.048 8.552 8.552 0 01-.107-.097l-.61-.364a1.11 1.11 0 01-.175-.129l-.16-.146a2.924 2.924 0 01-.299-.242 3.201 3.201 0 00-.266-.277 4.753 4.753 0 01-.323-.394c-.108-.142-.21-.279-.306-.411l-.366-.596a6.469 6.469 0 01-.317-.649c-.075-.178-.145-.35-.209-.517a3.174 3.174 0 01-.176-.553c-.08-.269-.148-.537-.205-.807a23.071 23.071 0 01-.12-.827 9.553 9.553 0 01-.042-.559l-.058-.575a4.066 4.066 0 01.062-.92.946.946 0 01.154-.38.41.41 0 01.063-.105.266.266 0 00.063-.104.957.957 0 01.343-.338l.132-.073c.055-.037.105-.067.15-.092.199-.099.358-.202.478-.309a.77.77 0 01.298-.183c.066-.048.138-.091.216-.128l.197-.144a.39.39 0 01.216-.129.073.073 0 01.05-.019l.048-.053c.099-.083.198-.144.298-.182.089-.05.19-.088.301-.115.258-.068.532-.131.824-.189.18-.03.34.02.482.149l.089.082c.174.094.283.259.327.495.052.156.08.268.082.336.002.045-.021.154-.07.326a1.33 1.33 0 00-.061.172.615.615 0 01-.112.158.407.407 0 00-.064.105l-.065.071a.224.224 0 01-.097.106.429.429 0 00-.115.09c.001.022-.021.034-.066.036l-.456.071a1.538 1.538 0 00-.883.395.784.784 0 00-.148.125 1.11 1.11 0 01-.163.143.737.737 0 00-.217.485l.01.237c.02.215.036.435.045.661l.062.643c.007.158.036.315.088.471l.156.469c.193.524.452 1.023.778 1.496l.18.23.144.197.177.163c.06.054.123.102.193.144a.85.85 0 01.158.112.667.667 0 00.14.096l.473.336c.082.054.17.112.262.176.093.041.18.089.261.142.568.304 1.164.589 1.787.857.23.103.449.173.654.21l.257.039.239.024.203-.009a.826.826 0 00.25-.095c.198-.145.384-.311.557-.5.193-.257.3-.528.322-.812a1.527 1.527 0 000-.391 2.468 2.468 0 00-.052-.405 4.472 4.472 0 00-.19-.858.268.268 0 00-.228-.177 1.181 1.181 0 00-.526.005 2.72 2.72 0 00-.603.196c-.19.065-.367.174-.53.329l-.116.056a.596.596 0 00-.276.3.901.901 0 01-.19.314l-.28.233a1.95 1.95 0 01-.785.289 2.148 2.148 0 01-.29-.039.964.964 0 00-.24-.057.212.212 0 00-.088-.048c-.023-.021-.036-.043-.037-.066l-.177-.162-.144-.198a.94.94 0 01-.17-.383 2.628 2.628 0 01-.029-.288c-.003-.351.074-.66.232-.927.084-.162.18-.313.286-.454.096-.151.192-.291.288-.42l1.363-1.485.276-.301c.097-.106.189-.218.274-.335.075-.105.15-.199.226-.281l.26-.283a.965.965 0 01.312-.234.66.66 0 01.506-.09c.08.008.165.021.256.04a.768.768 0 01.242.091c.023-.001.046.01.07.031a.184.184 0 00.069.031l.768.477c.116.063.232.137.349.223l.35.256.195.179c.07.042.134.09.193.144l.16.146c.07.043.134.091.193.145l.813.746.283.26.315.224a.85.85 0 01.158.112l.16.146c.106.12.235.228.387.323.14.085.28.181.42.288.07.042.145.09.227.143.08.03.162.072.243.125a.924.924 0 01.176.129.875.875 0 01.3.276.35.35 0 01.11.199.563.563 0 00.042.168c.086.166.1.363.042.592-.06.162-.139.318-.234.469a.802.802 0 00-.19.314zm2.969-4.94c-.052.126-.16.222-.328.286l-.483.207c-.078.038-.175.036-.29-.004l-.154-.045a.361.361 0 00-.205-.025c-.101.016-.222-.018-.361-.103a4.904 4.904 0 01-.403-.272 96.845 96.845 0 01-.386-.289 2.913 2.913 0 01-.299-.242 72.322 72.322 0 01-.265-.243l-.108-.131a.638.638 0 00-.144-.198l-.16-.146-3.218-2.953a4.69 4.69 0 00-.463-.489l-.513-.471a9.384 9.384 0 00-.46-.456 4.295 4.295 0 00-.51-.402 1.39 1.39 0 01-.212-.161l-.212-.195-.318-.292a2.018 2.018 0 00-.35-.257l-.054-.048a4.204 4.204 0 00-.51-.403l-.51-.403c-.105-.074-.204-.144-.298-.208a2.483 2.483 0 00-.296-.174.783.783 0 01-.158-.112l-.141-.13a.974.974 0 01-.197-.246 6.923 6.923 0 01-.165-.282.675.675 0 01-.014-.305.28.28 0 00.014-.085.401.401 0 01.136-.397c.033-.013.06-.053.08-.122.006-.102.049-.161.127-.176.056-.013.11-.072.163-.176a.16.16 0 01.116-.056.44.44 0 00.236-.045.303.303 0 01.22-.026l.203-.009.171.027a.162.162 0 01.155.044.396.396 0 01.142.13l.123.114c.106.097.224.194.353.29.127.074.25.154.367.239.14.085.28.181.42.288l.404.305.176.162c.105.052.198.116.28.192.083.076.17.146.264.21l.018.016.457.354.457.354c.07.042.14.096.21.161l.177.162 4.704 4.316a4 4 0 00.335.274c.128.074.244.148.35.223.058.054.12.046.185-.025a.882.882 0 00.276-.301 2.85 2.85 0 01.305-.404c.12-.129.238-.259.357-.389a39.2 39.2 0 00.34-.371c.108-.141.21-.275.306-.404l.179-.194c.098-.084.185-.156.262-.216l.227-.247c.12-.13.244-.254.375-.373.13-.141.26-.272.39-.391.1-.083.192-.172.278-.266l.292-.319.081-.088c.205-.247.458-.405.761-.474a.443.443 0 01.34-.015c.068.02.131.045.19.077a.54.54 0 01.19.076c.058.032.11.069.157.113.047.02.099.046.157.078.138.062.245.182.32.36l.075.132a.62.62 0 01.057.151.424.424 0 01.007.169l-.03.104a.922.922 0 01-.132.464c-.074.128-.159.267-.254.418l-.18.161a2.882 2.882 0 00-.593.433.915.915 0 00-.163.143 1.213 1.213 0 00-.18.161l-.227.247-.28.233-.18.161a3.87 3.87 0 01-.273.334 1.98 1.98 0 00-.293.319l-.13.141a.786.786 0 00-.147.126l-.26.282a1.505 1.505 0 00-.207.298 3.027 3.027 0 01-.127.209l-.163.177c-.15.188-.295.381-.433.58a4.84 4.84 0 00-.4.577.716.716 0 01-.128.176zm7.968-8.437a.497.497 0 01-.148.125 1.474 1.474 0 00-.166.075l-.133.074-.168.041-.171-.027c-.045.002-.079.015-.1.039-.065.07-.133.073-.204.008l-.244-.159-.245-.159-.35-.257a1.689 1.689 0 00-.334-.24l-.16-.146a.5.5 0 00-.14-.096 13.332 13.332 0 00-.123-.114c-.08-.03-.128-.074-.141-.13a3.905 3.905 0 00-.637-.584 1.206 1.206 0 01-.193-.144 1.21 1.21 0 00-.193-.145l-.354-.324a2.593 2.593 0 00-.404-.306l-.283-.259a2.51 2.51 0 00-.281-.226 2.355 2.355 0 00-.264-.209l-.35-.257a3.854 3.854 0 00-.335-.274.417.417 0 01-.14-.096l-.21-.127-.194-.179-.933-.758a19.43 19.43 0 00-.298-.208l-.265-.243-.457-.354a67.291 67.291 0 00-.44-.338.21.21 0 00-.086-.047l-.053-.049a6.874 6.874 0 00-.44-.372 84.97 84.97 0 01-.475-.37l-.544-.401a2.914 2.914 0 01-.635-.55.457.457 0 01-.152-.368c-.002-.045.002-.073.013-.085 0-.023-.002-.045-.003-.068.043-.07.028-.137-.042-.202-.024-.021-.014-.056.03-.103l.08-.088.017-.018c-.002-.023.003-.04.014-.052a.278.278 0 00.014-.085c-.002-.045.002-.074.013-.086a.21.21 0 01.082-.054.213.213 0 01.083-.055c.022-.023.032-.046.031-.069a.418.418 0 01.18-.161.861.861 0 01.215-.128c.077-.06.173-.07.288-.029.138.062.272.13.4.203.126.052.248.12.365.205l.141.13c.104.052.204.122.298.208l.265.244.248.227.245.159.106.097a.45.45 0 00.122.08l.212.195c.082.053.17.111.263.175l.439.338c.152.118.299.242.44.372l.195.178c.059.054.123.103.193.145a.45.45 0 01.122.08l.106.097.354.324c.07.065.135.114.193.145a.803.803 0 01.264.209c.07.065.153.13.246.194l.862.693c.129.096.258.204.388.323.129.096.258.204.388.323l.159.146c.047.043.1.081.157.112a.45.45 0 01.123.08l.106.097c.022-.001.046.021.07.065a.199.199 0 00.087.047c.105.052.198.116.28.192l.266.244.159.146a.875.875 0 01.175.128c.07.042.14.096.211.161l.195.178c.07.042.14.096.21.161.06.054.124.102.193.144.035.01.064.026.087.048.13.119.27.226.422.321l.454.286a.548.548 0 01.14.096l.106.098a.162.162 0 01.056.116c-.008.08.03.18.115.301.035.032.049.077.04.134a.906.906 0 00-.053.342.672.672 0 01-.185.45zm5.545-4.659l-.329.251-.509.413a8.262 8.262 0 00-.491.429 1.34 1.34 0 01-.596.365.894.894 0 01-.68-.038 1.35 1.35 0 00-.226-.11l-.21-.126c-.141-.13-.22-.257-.237-.381a1.266 1.266 0 00-.047-.304 2.612 2.612 0 01-.03-.287.382.382 0 01.013-.12l.03-.103a.746.746 0 01.09-.241c.031-.081.068-.156.11-.226.01-.034.026-.052.048-.053l.05-.053c.065-.048.136-.102.213-.162a.696.696 0 01.214-.162l.787-.646a.94.94 0 00.335-.507c.02-.068.034-.131.043-.188a1.55 1.55 0 00.043-.189c.085-.4.131-.77.139-1.11 0-.261-.005-.515-.016-.764a4.157 4.157 0 00-.1-.743c-.03-.18-.088-.33-.172-.451a1.598 1.598 0 00-.338-.342l-.19-.077a.366.366 0 00-.206-.059c-.068.003-.142 0-.221-.008a4.249 4.249 0 01-.39.034 1.254 1.254 0 00-.355.032c-.304.047-.601.1-.893.158-.282.046-.568.098-.86.156-.034-.01-.09.004-.168.041a7.201 7.201 0 01-.522.107 7.79 7.79 0 00-.525.04c-.226.01-.457.037-.693.081a.739.739 0 01-.355.032 1.145 1.145 0 00-.372.05 2.219 2.219 0 01-.37.084 4.249 4.249 0 00-.389.034l-.423.035a1.355 1.355 0 00-.305.013 2.873 2.873 0 00-.323-.003.43.43 0 00-.239-.024 1.537 1.537 0 01-.221-.007.37.37 0 00-.12-.012.64.64 0 01-.154-.044 9.372 9.372 0 00-.636-.16 6.67 6.67 0 01-.62-.211 8.226 8.226 0 00-.363-.137 10.964 10.964 0 00-.33-.173 1.015 1.015 0 00-.313-.156 45.624 45.624 0 00-.312-.157 4.763 4.763 0 00-.453-.252 37.378 37.378 0 00-.436-.27l-.174-.095a2.634 2.634 0 01-.371-.34 3.013 3.013 0 01-.345-.512.934.934 0 01-.125-.538l.041-.613a2.39 2.39 0 01.111-.583c.022-.023.032-.046.031-.069.014-.204.068-.394.163-.568.082-.184.17-.364.265-.538a16.61 16.61 0 011.235-2.091l.162-.177.309-.336c.097-.106.194-.223.29-.352.13-.142.278-.267.443-.376.153-.12.319-.218.497-.293a4.47 4.47 0 01.419-.137c.133-.051.267-.091.402-.119a.61.61 0 01.392.034l.173.06c.16.039.299.112.417.22.117.086.223.194.32.326a.724.724 0 01.107.131l.106.098c.227.273.314.581.26.923 0 .238-.11.452-.328.642-.067.026-.077.06-.03.104.047.043.044.094-.01.153l-.097.106c-.065.071-.166.109-.301.115-.113.005-.188-.009-.223-.041-.047-.044-.06-.1-.041-.169a3.239 3.239 0 00-.224-.075.544.544 0 00-.171-.026.382.382 0 00-.27.045l-.198.145-.197.144-.146.159-.198.144c-.044.025-.087.083-.128.176l-.062.138a.67.67 0 01-.131.108l-.114.124a.38.38 0 00-.078.156l-.255.385a2.235 2.235 0 00-.291.743l-.062.138a.22.22 0 01-.098.106.26.26 0 00-.109.226c.013.033.004.079-.028.137a.163.163 0 00-.046.121c.004.09.03.157.077.2.034.01.075.037.122.08l1.42.618c.253.103.511.176.774.222.261.023.528.039.8.05a5.7 5.7 0 001.17-.067l.996-.128c.214-.02.428-.052.642-.095.213-.044.42-.081.623-.112.292-.058.59-.111.894-.158.292-.057.59-.11.893-.157.248-.033.49-.061.727-.082.236-.044.473-.066.71-.065l.51.012c.17.004.342.031.514.08.205.037.423.106.654.21.29.134.529.3.718.495a.327.327 0 00.09.115c.142.13.26.272.358.427.096.131.182.286.258.464.064.167.128.346.193.535.064.167.117.346.159.537.045.259.079.518.101.777.022.237.027.492.016.764-.005.147-.004.3.003.458a2.965 2.965 0 01-.049.444c-.007.102-.02.199-.038.29l-.021.307c-.02.069-.034.143-.042.223l-.023.239a.605.605 0 01-.056.274 1.717 1.717 0 01-.074.258l-.259.707a2.089 2.089 0 01-.53.72zm11.326-13.234a1.756 1.756 0 01-.275.301.734.734 0 01-.401.153.575.575 0 00-.169.041c-.089.027-.163.024-.22-.007a.23.23 0 00-.172-.027.35.35 0 01-.188-.043.446.446 0 01-.123-.079.73.73 0 00-.107-.132.445.445 0 00-.123-.079l-.106-.098-.628-.38c-.22-.138-.43-.276-.629-.415l-.28-.192-.28-.191a8.198 8.198 0 00-.508-.369 8.198 8.198 0 00-.509-.369 1.405 1.405 0 01-.28-.192 2.506 2.506 0 00-.282-.225 14.259 14.259 0 00-.297-.208c-.082-.054-.155-.045-.22.026l-.131.108a1.322 1.322 0 00-.196.178 1.74 1.74 0 01-.213.196l-.162.177a.335.335 0 01-.08.122l-.13.142a.376.376 0 00-.13.141.79.79 0 00-.111.158 1.045 1.045 0 01-.148.125c-.023.001-.044.025-.065.071l-.065.07c-.054.059-.107.13-.16.211l-.163.177-.097.106a.464.464 0 00-.08.122l-.191.281-.228.247c-.12.107-.228.225-.324.354l-.29.386-.048.053c-.03.081-.022.143.025.186.012.011.018.027.02.05l.017.016a.608.608 0 00.158.112l.297.208c.094.064.193.134.298.208l.473.337c.129.096.263.186.403.271.127.074.25.153.367.239.022-.001.045.009.069.031a.184.184 0 00.07.031c.08.031.155.078.226.143l.212.195c.034-.013.052.015.055.082l.038.101a.208.208 0 00.055.082c.085.144.127.323.125.538-.014.205-.064.366-.15.482-.01.012-.015.029-.014.052l-.049.053c-.105.186-.268.34-.49.463l-.084.02a.234.234 0 00-.17-.026.766.766 0 01-.152.023.422.422 0 00-.17.008.526.526 0 01-.172-.061c-.012-.011-.024-.01-.034.002a.568.568 0 01-.276-.09 34.043 34.043 0 00-.245-.16l-.331-.206a3.824 3.824 0 00-.367-.239l-.387-.289-.787-.527-.28-.192a19.443 19.443 0 00-.297-.208l-.615-.466-.386-.289a4.92 4.92 0 00-.402-.272l-.16-.146a3.218 3.218 0 00-.299-.242 2.625 2.625 0 00-.281-.225.45.45 0 01-.123-.08l-.106-.097a.92.92 0 00-.175-.129 1.202 1.202 0 00-.193-.144l-.42-.288a3.607 3.607 0 00-.472-.302 3.134 3.134 0 00-.797-.374 2.774 2.774 0 01-.329-.138.935.935 0 00-.26-.108.744.744 0 01-.336-.308l-.167-.35c-.037-.055-.046-.128-.027-.219a.429.429 0 01-.007-.17.95.95 0 01.009-.187.262.262 0 01.063-.105c.044-.024.082-.077.112-.158l.014-.085a.419.419 0 01.292-.318l.233-.112a.508.508 0 01.286-.064c.076-.06.173-.058.289.005l.5.165c.286.09.568.197.846.321.277.123.544.282.801.475.094.063.193.133.298.208.104.052.209.115.314.19l.142.13a.417.417 0 00.14.096c.093.064.187.139.281.225.105.075.205.156.3.242l.035.033a.22.22 0 00.22.007l.133-.074.098-.106a.383.383 0 01.13-.141l.13-.142.21-.23c.053-.081.118-.163.194-.246l.194-.212a.473.473 0 01.115-.09.535.535 0 00.096-.14l.049-.053a.188.188 0 01.03-.069c.12-.107.235-.22.343-.338.096-.128.199-.252.307-.37a4.73 4.73 0 00.342-.337c.096-.129.199-.252.307-.37.086-.094.173-.177.26-.249l.244-.265c.076-.083.079-.156.008-.221l-.195-.179a1.39 1.39 0 00-.21-.161 31.46 31.46 0 00-.387-.289 5.017 5.017 0 00-.37-.307 8.665 8.665 0 01-.493-.42 2.899 2.899 0 00-.494-.42l-.422-.322a2.528 2.528 0 00-.403-.305l-.248-.227a.345.345 0 01-.09-.115l-.053-.049a.17.17 0 00-.037-.066c-.059-.055-.105-.075-.138-.062l-.084.02c-.112.028-.176-.009-.192-.111a.208.208 0 00-.143-.163c-.035-.033-.053-.06-.054-.083l-.042-.168a.543.543 0 00-.075-.167c-.097-.154-.107-.261-.03-.321.075-.082.136-.125.18-.127.023-.001.04-.007.05-.019 0-.022-.006-.039-.018-.05-.071-.065-.08-.138-.027-.22a1.5 1.5 0 00.111-.191l.027-.171.048-.053a.554.554 0 01.218-.061l.201-.076a.508.508 0 01.152-.024c.182.015.371.081.569.197.14.084.273.163.4.237.129.074.257.159.386.255l.07.065c.035.01.064.026.087.047l.14.096c.142.13.289.254.44.372.152.095.304.202.456.32.023-.001.052.015.087.047.072.088.15.169.232.245.081.053.175.117.28.192.093.064.193.145.299.242.105.075.205.155.299.242l.195.178c.081.053.157.101.227.143.07.043.134.091.193.145l.176.162.177.162c.058.032.122.069.192.111l.07.065.458.354c.15.095.303.202.455.32.023-.001.052.015.087.047.13.119.276.232.44.338.15.096.296.197.437.304l.668.515.07.065a.21.21 0 01.087.047c.035.01.087.047.158.112.106.097.218.189.335.274.127.074.25.154.367.239.139.085.273.176.402.272.129.096.269.192.42.288.163.106.332.206.505.301.174.094.343.194.506.301a.874.874 0 01.175.128.872.872 0 01.176.128.464.464 0 01.128.215.259.259 0 00.038.101c.024.021.037.055.039.1 0 .023.007.039.019.05.011.011.012.022.001.034a.302.302 0 00-.025.205.476.476 0 01-.007.221.596.596 0 01-.073.292l-.077.19z" fill="#FF8A00"/></svg>