<svg width="42" height="65" fill="none" xmlns="http://www.w3.org/2000/svg"><path d="M1.91 2.456v51.816h38.182" stroke="#FF8A00" stroke-width="2.283" stroke-linecap="round"/><path d="M9.883 24.543c2.86-2.861 6.38-4.291 10.557-4.291 4.176 0 7.695 1.43 10.556 4.29 2.861 2.862 4.292 6.352 4.292 10.472 0 4.12-1.431 7.61-4.292 10.47-2.86 2.833-6.38 4.249-10.556 4.249-4.177 0-7.696-1.416-10.557-4.249-2.86-2.86-4.291-6.35-4.291-10.47 0-4.12 1.43-7.61 4.291-10.471zm1.373 19.74c2.46 2.489 5.522 3.733 9.184 3.733 3.662 0 6.723-1.244 9.183-3.733 2.46-2.518 3.69-5.608 3.69-9.27 0-3.69-1.23-6.78-3.69-9.269-2.46-2.517-5.521-3.776-9.183-3.776s-6.723 1.259-9.184 3.776c-2.46 2.49-3.69 5.58-3.69 9.27 0 3.661 1.23 6.751 3.69 9.269z" fill="#FF8A00"/><path d="M36.849 8.29a1.141 1.141 0 001.941-1.2l-1.941 1.2zm-16.885-.6l1.125.19-1.125-.19zm18.826-.6c-1.695-2.739-3.73-4.468-5.89-5.394-2.157-.924-4.363-1.015-6.35-.603a11.885 11.885 0 00-5.11 2.444c-1.323 1.099-2.355 2.505-2.602 3.963l2.251.38c.12-.711.71-1.674 1.81-2.587a9.604 9.604 0 014.115-1.965c1.59-.33 3.314-.25 4.987.466 1.669.716 3.363 2.098 4.848 4.497L38.79 7.09zm-19.951.41c-.107.633-.177 1.844-.227 3.39-.05 1.578-.082 3.586-.099 5.864-.035 4.558-.012 10.224.034 15.75a2545.127 2545.127 0 00.274 21.438l.001.09v.031l1.142-.02 1.14-.02v-.03a35.756 35.756 0 00-.007-.442 1777.56 1777.56 0 01-.095-6.157c-.057-4.005-.126-9.39-.172-14.91-.046-5.52-.069-11.172-.034-15.712a248.9 248.9 0 01.098-5.808c.05-1.582.119-2.632.195-3.084l-2.25-.38z" fill="#FF8A00"/><path d="M34.182 21.174H6.455" stroke="#FF8A00" stroke-width="2.283" stroke-linecap="round"/><path d="M5.858 57.213h.911v6.94h-.91v-3.02H2.344v3.02h-.91v-6.94h.91v3.018l3.513-.008v-3.01zm7.77 6.94l-.806-1.857h-3.4l-.798 1.856h-.989l2.984-6.939h.998l3 6.94h-.988zm-3.807-2.777l2.602-.008-1.3-3.019-1.302 3.028zm11.348-1.934c0 .445-.116.818-.347 1.12-.232.3-.55.534-.954.702l1.24 2.888h-1.015l-1.136-2.645c-.243.04-.509.06-.798.06h-1.743v2.585h-.929v-6.939h2.672c.896 0 1.622.162 2.177.486.555.324.833.905.833 1.743zm-3.01 1.223c.729 0 1.243-.098 1.544-.295.3-.202.451-.52.451-.954 0-.422-.156-.74-.468-.954-.307-.22-.816-.33-1.527-.33h-1.743v2.533h1.743zm6.897-3.452c.7-.006 1.229.139 1.587.434.365.289.547.68.547 1.17 0 .37-.11.683-.33.937-.214.25-.509.394-.884.434.618.052 1.118.226 1.5.52.382.296.573.723.573 1.284 0 .735-.28 1.278-.842 1.631-.555.353-1.272.53-2.15.53h-2.76v-6.94h2.76zm0 2.576c.405 0 .706-.075.902-.225a.742.742 0 00.295-.625.671.671 0 00-.295-.581c-.196-.145-.497-.217-.902-.217h-1.83v1.648h1.83zm0 3.435c.729 0 1.24-.116 1.535-.347.295-.237.443-.552.443-.945 0-.37-.153-.668-.46-.894-.307-.225-.813-.338-1.518-.338h-1.83v2.524h1.83zm4.768-6.011v3.782c0 .538.055.971.165 1.3.11.325.292.565.546.72.255.151.596.226 1.024.226.41 0 .734-.075.971-.225.237-.156.408-.396.512-.72.104-.33.156-.763.156-1.301v-3.782h.911v3.782c0 .705-.075 1.286-.226 1.743-.15.457-.413.807-.789 1.05-.37.243-.882.364-1.535.364-.683 0-1.217-.121-1.605-.364a1.935 1.935 0 01-.815-1.041c-.15-.457-.226-1.04-.226-1.752v-3.782h.911zm10.385 0L36.53 63.25l3.678-.009v.911h-5.23l3.703-6.028h-3.556v-.902l4.111-.009h.972z" fill="#000"/></svg>